<svg width="200" height="114" viewBox="0 0 200 114" fill="none" xmlns="http://www.w3.org/2000/svg">
<g id="button-start" clip-path="url(#clip0_85_42)">
<g id="Rectangle 89" filter="url(#filter0_dii_85_42)">
<rect width="200" height="110" rx="10" fill="#FFA205"/>
<rect x="0.5" y="0.5" width="199" height="109" rx="9.5" stroke="black"/>
</g>
<g id="Rectangle 90" filter="url(#filter1_d_85_42)">
<rect x="5" y="7" width="190" height="51" rx="5" fill="#FDB900"/>
</g>
<g id="start" filter="url(#filter2_dd_85_42)">
<mask id="path-4-outside-1_85_42" maskUnits="userSpaceOnUse" x="52" y="17" width="97" height="31" fill="black">
<rect fill="white" x="52" y="17" width="97" height="31"/>
<path d="M73.2422 30.8438L66.8643 31.0142C66.7981 30.5597 66.6181 30.1572 66.3246 29.8068C66.031 29.447 65.6475 29.1676 65.174 28.9688C64.71 28.7604 64.1702 28.6562 63.5547 28.6562C62.7498 28.6562 62.0632 28.8172 61.495 29.1392C60.9363 29.4612 60.6617 29.8968 60.6712 30.446C60.6617 30.8722 60.8321 31.2415 61.1825 31.554C61.5424 31.8665 62.1816 32.1174 63.1001 32.3068L67.3047 33.1023C69.4827 33.5189 71.102 34.2102 72.1626 35.1761C73.2327 36.142 73.7725 37.4205 73.782 39.0114C73.7725 40.5076 73.3274 41.8097 72.4467 42.9176C71.5755 44.0256 70.3823 44.8873 68.8672 45.5028C67.352 46.1089 65.6191 46.4119 63.6683 46.4119C60.5528 46.4119 58.0954 45.7727 56.2962 44.4943C54.5064 43.2064 53.4837 41.483 53.228 39.3239L60.0888 39.1534C60.2403 39.9489 60.6333 40.5549 61.2678 40.9716C61.9022 41.3883 62.7119 41.5966 63.6967 41.5966C64.5869 41.5966 65.3113 41.4309 65.87 41.0994C66.4287 40.768 66.7128 40.3277 66.7223 39.7784C66.7128 39.286 66.495 38.893 66.0689 38.5994C65.6428 38.2964 64.9751 38.0597 64.0661 37.8892L60.2592 37.1648C58.0717 36.767 56.4429 36.0331 55.3729 34.9631C54.3028 33.8835 53.7725 32.5104 53.782 30.8438C53.7725 29.3854 54.1607 28.1402 54.9467 27.108C55.7327 26.0663 56.8501 25.2708 58.299 24.7216C59.7479 24.1723 61.4571 23.8977 63.4268 23.8977C66.3814 23.8977 68.7109 24.518 70.4155 25.7585C72.12 26.9896 73.0623 28.6847 73.2422 30.8438ZM89.517 24.1818V29.2955H75.7528V24.1818H89.517ZM78.6364 18.9545H85.5824V39.1392C85.5824 39.5653 85.6487 39.911 85.7812 40.1761C85.9233 40.4318 86.1269 40.6165 86.392 40.7301C86.6572 40.8343 86.9744 40.8864 87.3438 40.8864C87.6089 40.8864 87.8883 40.8627 88.1818 40.8153C88.4848 40.7585 88.7121 40.7112 88.8636 40.6733L89.9148 45.6875C89.5833 45.7822 89.1146 45.9006 88.5085 46.0426C87.9119 46.1847 87.197 46.2746 86.3636 46.3125C84.7348 46.3883 83.3381 46.1989 82.1733 45.7443C81.018 45.2803 80.1326 44.5606 79.517 43.5852C78.911 42.6098 78.6174 41.3835 78.6364 39.9062V18.9545ZM99.2116 46.3693C97.8196 46.3693 96.5838 46.1373 95.5043 45.6733C94.4342 45.1998 93.5866 44.4896 92.9616 43.5426C92.3461 42.5862 92.0384 41.3883 92.0384 39.9489C92.0384 38.7367 92.2514 37.714 92.6776 36.8807C93.1037 36.0473 93.6908 35.3703 94.4389 34.8494C95.187 34.3286 96.0488 33.9356 97.0241 33.6705C97.9995 33.3958 99.0412 33.2112 100.149 33.1165C101.39 33.0028 102.389 32.8845 103.146 32.7614C103.904 32.6288 104.453 32.4441 104.794 32.2074C105.144 31.9612 105.32 31.6155 105.32 31.1705V31.0994C105.32 30.3703 105.069 29.8068 104.567 29.4091C104.065 29.0114 103.388 28.8125 102.536 28.8125C101.617 28.8125 100.878 29.0114 100.32 29.4091C99.7609 29.8068 99.4058 30.3561 99.2543 31.0568L92.848 30.8295C93.0374 29.5038 93.5251 28.3201 94.3111 27.2784C95.1065 26.2273 96.1955 25.4034 97.5781 24.8068C98.9702 24.2008 100.642 23.8977 102.592 23.8977C103.984 23.8977 105.268 24.0634 106.442 24.3949C107.616 24.7169 108.639 25.1903 109.51 25.8153C110.381 26.4309 111.054 27.1884 111.527 28.0881C112.01 28.9877 112.251 30.0152 112.251 31.1705V46H105.717V42.9602H105.547C105.159 43.6989 104.661 44.3239 104.055 44.8352C103.459 45.3466 102.753 45.7301 101.939 45.9858C101.134 46.2415 100.225 46.3693 99.2116 46.3693ZM101.357 41.8239C102.105 41.8239 102.777 41.6723 103.374 41.3693C103.98 41.0663 104.463 40.6496 104.822 40.1193C105.182 39.5795 105.362 38.9545 105.362 38.2443V36.1705C105.163 36.2746 104.922 36.3693 104.638 36.4545C104.363 36.5398 104.06 36.6203 103.729 36.696C103.397 36.7718 103.056 36.8381 102.706 36.8949C102.356 36.9517 102.019 37.0038 101.697 37.0511C101.044 37.1553 100.485 37.3163 100.021 37.5341C99.5668 37.7519 99.2164 38.036 98.9702 38.3864C98.7334 38.7273 98.6151 39.1345 98.6151 39.608C98.6151 40.3277 98.8707 40.8769 99.3821 41.2557C99.9029 41.6345 100.561 41.8239 101.357 41.8239ZM116.499 46V24.1818H123.246V28.1591H123.473C123.871 26.7197 124.519 25.6496 125.419 24.9489C126.319 24.2386 127.365 23.8835 128.558 23.8835C128.88 23.8835 129.212 23.9072 129.553 23.9545C129.893 23.9924 130.211 24.054 130.504 24.1392V30.1761C130.173 30.0625 129.737 29.9725 129.197 29.9062C128.667 29.84 128.194 29.8068 127.777 29.8068C126.953 29.8068 126.21 29.9915 125.547 30.3608C124.893 30.7206 124.377 31.2273 123.999 31.8807C123.629 32.5246 123.445 33.2822 123.445 34.1534V46H116.499ZM146.665 24.1818V29.2955H132.901V24.1818H146.665ZM135.785 18.9545H142.731V39.1392C142.731 39.5653 142.797 39.911 142.93 40.1761C143.072 40.4318 143.275 40.6165 143.54 40.7301C143.806 40.8343 144.123 40.8864 144.492 40.8864C144.757 40.8864 145.037 40.8627 145.33 40.8153C145.633 40.7585 145.861 40.7112 146.012 40.6733L147.063 45.6875C146.732 45.7822 146.263 45.9006 145.657 46.0426C145.06 46.1847 144.345 46.2746 143.512 46.3125C141.883 46.3883 140.487 46.1989 139.322 45.7443C138.166 45.2803 137.281 44.5606 136.665 43.5852C136.059 42.6098 135.766 41.3835 135.785 39.9062V18.9545Z"/>
</mask>
<path d="M73.2422 30.8438L66.8643 31.0142C66.7981 30.5597 66.6181 30.1572 66.3246 29.8068C66.031 29.447 65.6475 29.1676 65.174 28.9688C64.71 28.7604 64.1702 28.6562 63.5547 28.6562C62.7498 28.6562 62.0632 28.8172 61.495 29.1392C60.9363 29.4612 60.6617 29.8968 60.6712 30.446C60.6617 30.8722 60.8321 31.2415 61.1825 31.554C61.5424 31.8665 62.1816 32.1174 63.1001 32.3068L67.3047 33.1023C69.4827 33.5189 71.102 34.2102 72.1626 35.1761C73.2327 36.142 73.7725 37.4205 73.782 39.0114C73.7725 40.5076 73.3274 41.8097 72.4467 42.9176C71.5755 44.0256 70.3823 44.8873 68.8672 45.5028C67.352 46.1089 65.6191 46.4119 63.6683 46.4119C60.5528 46.4119 58.0954 45.7727 56.2962 44.4943C54.5064 43.2064 53.4837 41.483 53.228 39.3239L60.0888 39.1534C60.2403 39.9489 60.6333 40.5549 61.2678 40.9716C61.9022 41.3883 62.7119 41.5966 63.6967 41.5966C64.5869 41.5966 65.3113 41.4309 65.87 41.0994C66.4287 40.768 66.7128 40.3277 66.7223 39.7784C66.7128 39.286 66.495 38.893 66.0689 38.5994C65.6428 38.2964 64.9751 38.0597 64.0661 37.8892L60.2592 37.1648C58.0717 36.767 56.4429 36.0331 55.3729 34.9631C54.3028 33.8835 53.7725 32.5104 53.782 30.8438C53.7725 29.3854 54.1607 28.1402 54.9467 27.108C55.7327 26.0663 56.8501 25.2708 58.299 24.7216C59.7479 24.1723 61.4571 23.8977 63.4268 23.8977C66.3814 23.8977 68.7109 24.518 70.4155 25.7585C72.12 26.9896 73.0623 28.6847 73.2422 30.8438ZM89.517 24.1818V29.2955H75.7528V24.1818H89.517ZM78.6364 18.9545H85.5824V39.1392C85.5824 39.5653 85.6487 39.911 85.7812 40.1761C85.9233 40.4318 86.1269 40.6165 86.392 40.7301C86.6572 40.8343 86.9744 40.8864 87.3438 40.8864C87.6089 40.8864 87.8883 40.8627 88.1818 40.8153C88.4848 40.7585 88.7121 40.7112 88.8636 40.6733L89.9148 45.6875C89.5833 45.7822 89.1146 45.9006 88.5085 46.0426C87.9119 46.1847 87.197 46.2746 86.3636 46.3125C84.7348 46.3883 83.3381 46.1989 82.1733 45.7443C81.018 45.2803 80.1326 44.5606 79.517 43.5852C78.911 42.6098 78.6174 41.3835 78.6364 39.9062V18.9545ZM99.2116 46.3693C97.8196 46.3693 96.5838 46.1373 95.5043 45.6733C94.4342 45.1998 93.5866 44.4896 92.9616 43.5426C92.3461 42.5862 92.0384 41.3883 92.0384 39.9489C92.0384 38.7367 92.2514 37.714 92.6776 36.8807C93.1037 36.0473 93.6908 35.3703 94.4389 34.8494C95.187 34.3286 96.0488 33.9356 97.0241 33.6705C97.9995 33.3958 99.0412 33.2112 100.149 33.1165C101.39 33.0028 102.389 32.8845 103.146 32.7614C103.904 32.6288 104.453 32.4441 104.794 32.2074C105.144 31.9612 105.32 31.6155 105.32 31.1705V31.0994C105.32 30.3703 105.069 29.8068 104.567 29.4091C104.065 29.0114 103.388 28.8125 102.536 28.8125C101.617 28.8125 100.878 29.0114 100.32 29.4091C99.7609 29.8068 99.4058 30.3561 99.2543 31.0568L92.848 30.8295C93.0374 29.5038 93.5251 28.3201 94.3111 27.2784C95.1065 26.2273 96.1955 25.4034 97.5781 24.8068C98.9702 24.2008 100.642 23.8977 102.592 23.8977C103.984 23.8977 105.268 24.0634 106.442 24.3949C107.616 24.7169 108.639 25.1903 109.51 25.8153C110.381 26.4309 111.054 27.1884 111.527 28.0881C112.01 28.9877 112.251 30.0152 112.251 31.1705V46H105.717V42.9602H105.547C105.159 43.6989 104.661 44.3239 104.055 44.8352C103.459 45.3466 102.753 45.7301 101.939 45.9858C101.134 46.2415 100.225 46.3693 99.2116 46.3693ZM101.357 41.8239C102.105 41.8239 102.777 41.6723 103.374 41.3693C103.98 41.0663 104.463 40.6496 104.822 40.1193C105.182 39.5795 105.362 38.9545 105.362 38.2443V36.1705C105.163 36.2746 104.922 36.3693 104.638 36.4545C104.363 36.5398 104.06 36.6203 103.729 36.696C103.397 36.7718 103.056 36.8381 102.706 36.8949C102.356 36.9517 102.019 37.0038 101.697 37.0511C101.044 37.1553 100.485 37.3163 100.021 37.5341C99.5668 37.7519 99.2164 38.036 98.9702 38.3864C98.7334 38.7273 98.6151 39.1345 98.6151 39.608C98.6151 40.3277 98.8707 40.8769 99.3821 41.2557C99.9029 41.6345 100.561 41.8239 101.357 41.8239ZM116.499 46V24.1818H123.246V28.1591H123.473C123.871 26.7197 124.519 25.6496 125.419 24.9489C126.319 24.2386 127.365 23.8835 128.558 23.8835C128.88 23.8835 129.212 23.9072 129.553 23.9545C129.893 23.9924 130.211 24.054 130.504 24.1392V30.1761C130.173 30.0625 129.737 29.9725 129.197 29.9062C128.667 29.84 128.194 29.8068 127.777 29.8068C126.953 29.8068 126.21 29.9915 125.547 30.3608C124.893 30.7206 124.377 31.2273 123.999 31.8807C123.629 32.5246 123.445 33.2822 123.445 34.1534V46H116.499ZM146.665 24.1818V29.2955H132.901V24.1818H146.665ZM135.785 18.9545H142.731V39.1392C142.731 39.5653 142.797 39.911 142.93 40.1761C143.072 40.4318 143.275 40.6165 143.54 40.7301C143.806 40.8343 144.123 40.8864 144.492 40.8864C144.757 40.8864 145.037 40.8627 145.33 40.8153C145.633 40.7585 145.861 40.7112 146.012 40.6733L147.063 45.6875C146.732 45.7822 146.263 45.9006 145.657 46.0426C145.06 46.1847 144.345 46.2746 143.512 46.3125C141.883 46.3883 140.487 46.1989 139.322 45.7443C138.166 45.2803 137.281 44.5606 136.665 43.5852C136.059 42.6098 135.766 41.3835 135.785 39.9062V18.9545Z" fill="white"/>
<path d="M73.2422 30.8438L73.2689 31.8434L74.3266 31.8151L74.2387 30.7607L73.2422 30.8438ZM66.8643 31.0142L65.8748 31.1585L66.003 32.0376L66.8911 32.0138L66.8643 31.0142ZM66.3246 29.8068L65.5496 30.439L65.5581 30.449L66.3246 29.8068ZM65.174 28.9688L64.7644 29.881L64.7755 29.886L64.7868 29.8907L65.174 28.9688ZM61.495 29.1392L61.002 28.2692L60.9957 28.2728L61.495 29.1392ZM60.6712 30.446L61.6709 30.4682L61.6714 30.4485L61.671 30.4288L60.6712 30.446ZM61.1825 31.554L60.5169 32.3003L60.5268 32.309L61.1825 31.554ZM63.1001 32.3068L62.8982 33.2862L62.9062 33.2879L62.9142 33.2894L63.1001 32.3068ZM67.3047 33.1023L67.4926 32.1201L67.4906 32.1197L67.3047 33.1023ZM72.1626 35.1761L71.4893 35.9155L71.4926 35.9184L72.1626 35.1761ZM73.782 39.0114L74.782 39.0177L74.7819 39.0054L73.782 39.0114ZM72.4467 42.9176L71.6639 42.2954L71.6606 42.2995L72.4467 42.9176ZM68.8672 45.5028L69.2386 46.4313L69.2436 46.4293L68.8672 45.5028ZM56.2962 44.4943L55.7121 45.306L55.717 45.3095L56.2962 44.4943ZM53.228 39.3239L53.2031 38.3242L52.1058 38.3514L52.2349 39.4415L53.228 39.3239ZM60.0888 39.1534L61.0711 38.9663L60.9123 38.1326L60.0639 38.1537L60.0888 39.1534ZM61.2678 40.9716L61.8167 40.1357V40.1357L61.2678 40.9716ZM65.87 41.0994L65.3598 40.2394V40.2394L65.87 41.0994ZM66.7223 39.7784L67.7222 39.7956L67.7225 39.7774L67.7221 39.7592L66.7223 39.7784ZM66.0689 38.5994L65.4894 39.4144L65.4954 39.4187L65.5016 39.4229L66.0689 38.5994ZM64.0661 37.8892L63.8791 38.8716L63.8818 38.8721L64.0661 37.8892ZM60.2592 37.1648L60.4462 36.1824L60.4381 36.1809L60.2592 37.1648ZM55.3729 34.9631L54.6626 35.6671L54.6658 35.6702L55.3729 34.9631ZM53.782 30.8438L54.782 30.8494L54.7819 30.8373L53.782 30.8438ZM54.9467 27.108L55.7423 27.7138L55.745 27.7103L54.9467 27.108ZM58.299 24.7216L57.9445 23.7865V23.7865L58.299 24.7216ZM70.4155 25.7585L69.827 26.5671L69.83 26.5692L70.4155 25.7585ZM73.2422 30.8438L73.2155 29.8441L66.8376 30.0146L66.8643 31.0142L66.8911 32.0138L73.2689 31.8434L73.2422 30.8438ZM66.8643 31.0142L67.8539 30.8699C67.761 30.2329 67.5043 29.6578 67.0911 29.1646L66.3246 29.8068L65.5581 30.449C65.7319 30.6566 65.8351 30.8864 65.8748 31.1585L66.8643 31.0142ZM66.3246 29.8068L67.0994 29.1747C66.6917 28.6749 66.1694 28.3022 65.5612 28.0468L65.174 28.9688L64.7868 29.8907C65.1255 30.033 65.3703 30.219 65.5497 30.4389L66.3246 29.8068ZM65.174 28.9688L65.5836 28.0565C64.9667 27.7795 64.2823 27.6562 63.5547 27.6562V28.6562V29.6562C64.0581 29.6562 64.4533 29.7413 64.7644 29.881L65.174 28.9688ZM63.5547 28.6562V27.6562C62.6168 27.6562 61.7518 27.8443 61.002 28.2692L61.495 29.1392L61.988 30.0092C62.3747 29.7901 62.8828 29.6562 63.5547 29.6562V28.6562ZM61.495 29.1392L60.9957 28.2728C60.1876 28.7385 59.6544 29.4804 59.6713 30.4633L60.6712 30.446L61.671 30.4288C61.669 30.3132 61.6851 30.1838 61.9943 30.0056L61.495 29.1392ZM60.6712 30.446L59.6714 30.4238C59.6547 31.1746 59.973 31.8152 60.5169 32.3003L61.1825 31.554L61.8481 30.8077C61.6913 30.6678 61.6687 30.5697 61.6709 30.4682L60.6712 30.446ZM61.1825 31.554L60.5268 32.309C61.0903 32.7983 61.9451 33.0897 62.8982 33.2862L63.1001 32.3068L63.3021 31.3274C62.4181 31.1452 61.9945 30.9347 61.8382 30.7989L61.1825 31.554ZM63.1001 32.3068L62.9142 33.2894L67.1188 34.0848L67.3047 33.1023L67.4906 32.1197L63.286 31.3242L63.1001 32.3068ZM67.3047 33.1023L67.1168 34.0845C69.2046 34.4839 70.6202 35.124 71.4893 35.9155L72.1626 35.1761L72.836 34.4368C71.5838 33.2965 69.7608 32.554 67.4926 32.1201L67.3047 33.1023ZM72.1626 35.1761L71.4926 35.9184C72.3312 36.6755 72.774 37.6749 72.782 39.0173L73.782 39.0114L74.7819 39.0054C74.771 37.166 74.1342 35.6086 72.8327 34.4338L72.1626 35.1761ZM73.782 39.0114L72.782 39.005C72.7738 40.2912 72.397 41.3731 71.6639 42.2954L72.4467 42.9176L73.2296 43.5399C74.2578 42.2462 74.7711 40.724 74.7819 39.0177L73.782 39.0114ZM72.4467 42.9176L71.6606 42.2995C70.913 43.2503 69.871 44.0157 68.4908 44.5764L68.8672 45.5028L69.2436 46.4293C70.8937 45.7589 72.238 44.8009 73.2328 43.5357L72.4467 42.9176ZM68.8672 45.5028L68.4958 44.5744C67.1194 45.1249 65.5162 45.4119 63.6683 45.4119V46.4119V47.4119C65.722 47.4119 67.5847 47.0929 69.2386 46.4313L68.8672 45.5028ZM63.6683 46.4119V45.4119C60.6778 45.4119 58.4487 44.797 56.8754 43.6791L56.2962 44.4943L55.717 45.3095C57.7422 46.7485 60.4278 47.4119 63.6683 47.4119V46.4119ZM56.2962 44.4943L56.8802 43.6826C55.3144 42.5559 54.4432 41.0824 54.221 39.2063L53.228 39.3239L52.2349 39.4415C52.5241 41.8835 53.6984 43.857 55.7121 45.306L56.2962 44.4943ZM53.228 39.3239L53.2528 40.3236L60.1136 40.1531L60.0888 39.1534L60.0639 38.1537L53.2031 38.3242L53.228 39.3239ZM60.0888 39.1534L59.1064 39.3405C59.3049 40.3822 59.8417 41.2314 60.7188 41.8075L61.2678 40.9716L61.8167 40.1357C61.4249 39.8784 61.1757 39.5155 61.0711 38.9663L60.0888 39.1534ZM61.2678 40.9716L60.7188 41.8075C61.5584 42.3588 62.5741 42.5966 63.6967 42.5966V41.5966V40.5966C62.8496 40.5966 62.246 40.4177 61.8167 40.1357L61.2678 40.9716ZM63.6967 41.5966V42.5966C64.7026 42.5966 65.6202 42.4104 66.3802 41.9595L65.87 41.0994L65.3598 40.2394C65.0025 40.4514 64.4711 40.5966 63.6967 40.5966V41.5966ZM65.87 41.0994L66.3802 41.9595C67.1735 41.4889 67.7055 40.76 67.7222 39.7956L66.7223 39.7784L65.7225 39.7612C65.7201 39.8953 65.684 40.0471 65.3598 40.2394L65.87 41.0994ZM66.7223 39.7784L67.7221 39.7592C67.7061 38.9259 67.3118 38.2413 66.6362 37.7759L66.0689 38.5994L65.5016 39.4229C65.6783 39.5446 65.7196 39.6461 65.7225 39.7976L66.7223 39.7784ZM66.0689 38.5994L66.6484 37.7845C66.0459 37.356 65.2087 37.086 64.2503 36.9063L64.0661 37.8892L63.8818 38.8721C64.7416 39.0333 65.2397 39.2368 65.4894 39.4144L66.0689 38.5994ZM64.0661 37.8892L64.253 36.9068L60.4462 36.1824L60.2592 37.1648L60.0723 38.1471L63.8791 38.8716L64.0661 37.8892ZM60.2592 37.1648L60.4381 36.1809C58.3616 35.8033 56.9533 35.1292 56.08 34.256L55.3729 34.9631L54.6658 35.6702C55.9326 36.937 57.7819 37.7307 60.0803 38.1486L60.2592 37.1648ZM55.3729 34.9631L56.0831 34.2591C55.219 33.3873 54.7738 32.2786 54.7819 30.8494L53.782 30.8438L52.782 30.8381C52.7712 32.7422 53.3866 34.3797 54.6627 35.6671L55.3729 34.9631ZM53.782 30.8438L54.7819 30.8373C54.7737 29.5711 55.1068 28.5484 55.7423 27.7138L54.9467 27.108L54.1511 26.5021C53.2147 27.7319 52.7713 29.1997 52.782 30.8502L53.782 30.8438ZM54.9467 27.108L55.745 27.7103C56.3976 26.8454 57.3475 26.1517 58.6535 25.6567L58.299 24.7216L57.9445 23.7865C56.3528 24.3899 55.0678 25.2872 54.1485 26.5056L54.9467 27.108ZM58.299 24.7216L58.6535 25.6567C59.963 25.1602 61.5469 24.8977 63.4268 24.8977V23.8977V22.8977C61.3674 22.8977 59.5327 23.1845 57.9445 23.7865L58.299 24.7216ZM63.4268 23.8977V24.8977C66.2525 24.8977 68.3499 25.492 69.827 26.5671L70.4155 25.7585L71.0039 24.95C69.072 23.544 66.5103 22.8977 63.4268 22.8977V23.8977ZM70.4155 25.7585L69.83 26.5692C71.2897 27.6235 72.0891 29.0485 72.2456 30.9268L73.2422 30.8438L74.2387 30.7607C74.0354 28.3209 72.9503 26.3557 71.001 24.9478L70.4155 25.7585ZM89.517 24.1818H90.517V23.1818H89.517V24.1818ZM89.517 29.2955V30.2955H90.517V29.2955H89.517ZM75.7528 29.2955H74.7528V30.2955H75.7528V29.2955ZM75.7528 24.1818V23.1818H74.7528V24.1818H75.7528ZM78.6364 18.9545V17.9545H77.6364V18.9545H78.6364ZM85.5824 18.9545H86.5824V17.9545H85.5824V18.9545ZM85.7812 40.1761L84.8868 40.6233L84.8965 40.6428L84.9071 40.6618L85.7812 40.1761ZM86.392 40.7301L85.9981 41.6493L86.0122 41.6553L86.0264 41.6609L86.392 40.7301ZM88.1818 40.8153L88.341 41.8026L88.3536 41.8006L88.3661 41.7982L88.1818 40.8153ZM88.8636 40.6733L89.8424 40.4681L89.6292 39.4511L88.6211 39.7032L88.8636 40.6733ZM89.9148 45.6875L90.1895 46.649L91.0845 46.3933L90.8935 45.4823L89.9148 45.6875ZM88.5085 46.0426L88.2803 45.069L88.2769 45.0698L88.5085 46.0426ZM86.3636 46.3125L86.3182 45.3135L86.3172 45.3136L86.3636 46.3125ZM82.1733 45.7443L81.8006 46.6723L81.8098 46.6759L82.1733 45.7443ZM79.517 43.5852L78.6676 44.113L78.6714 44.1189L79.517 43.5852ZM78.6364 39.9062L79.6364 39.9191V39.9062H78.6364ZM89.517 24.1818H88.517V29.2955H89.517H90.517V24.1818H89.517ZM89.517 29.2955V28.2955H75.7528V29.2955V30.2955H89.517V29.2955ZM75.7528 29.2955H76.7528V24.1818H75.7528H74.7528V29.2955H75.7528ZM75.7528 24.1818V25.1818H89.517V24.1818V23.1818H75.7528V24.1818ZM78.6364 18.9545V19.9545H85.5824V18.9545V17.9545H78.6364V18.9545ZM85.5824 18.9545H84.5824V39.1392H85.5824H86.5824V18.9545H85.5824ZM85.5824 39.1392H84.5824C84.5824 39.6574 84.6612 40.1721 84.8868 40.6233L85.7812 40.1761L86.6757 39.7289C86.6361 39.6498 86.5824 39.4733 86.5824 39.1392H85.5824ZM85.7812 40.1761L84.9071 40.6618C85.1551 41.1083 85.5262 41.447 85.9981 41.6493L86.392 40.7301L86.786 39.811C86.7276 39.7859 86.6915 39.7554 86.6554 39.6905L85.7812 40.1761ZM86.392 40.7301L86.0264 41.6609C86.4369 41.8221 86.8846 41.8864 87.3438 41.8864V40.8864V39.8864C87.0643 39.8864 86.8775 39.8464 86.7577 39.7994L86.392 40.7301ZM87.3438 40.8864V41.8864C87.6682 41.8864 88.0011 41.8574 88.341 41.8026L88.1818 40.8153L88.0226 39.8281C87.7754 39.868 87.5496 39.8864 87.3438 39.8864V40.8864ZM88.1818 40.8153L88.3661 41.7982C88.6738 41.7405 88.9248 41.6888 89.1062 41.6434L88.8636 40.6733L88.6211 39.7032C88.4994 39.7336 88.2959 39.7765 87.9975 39.8325L88.1818 40.8153ZM88.8636 40.6733L87.8849 40.8785L88.9361 45.8927L89.9148 45.6875L90.8935 45.4823L89.8424 40.4681L88.8636 40.6733ZM89.9148 45.6875L89.6401 44.726C89.3316 44.8141 88.881 44.9282 88.2803 45.069L88.5085 46.0426L88.7367 47.0162C89.3481 46.8729 89.8351 46.7503 90.1895 46.649L89.9148 45.6875ZM88.5085 46.0426L88.2769 45.0698C87.7588 45.1932 87.1096 45.2776 86.3182 45.3135L86.3636 46.3125L86.409 47.3115C87.2844 47.2717 88.0651 47.1761 88.7401 47.0154L88.5085 46.0426ZM86.3636 46.3125L86.3172 45.3136C84.7876 45.3847 83.5379 45.2034 82.5368 44.8127L82.1733 45.7443L81.8098 46.6759C83.1382 47.1943 84.6821 47.3918 86.4101 47.3114L86.3636 46.3125ZM82.1733 45.7443L82.546 44.8164C81.5695 44.4242 80.8569 43.8346 80.3627 43.0515L79.517 43.5852L78.6714 44.1189C79.4082 45.2866 80.4665 46.1364 81.8006 46.6723L82.1733 45.7443ZM79.517 43.5852L80.3664 43.0575C79.8863 42.2847 79.6191 41.2595 79.6363 39.9191L78.6364 39.9062L77.6364 39.8934C77.6158 41.5075 77.9357 42.935 78.6677 44.113L79.517 43.5852ZM78.6364 39.9062H79.6364V18.9545H78.6364H77.6364V39.9062H78.6364ZM95.5043 45.6733L95.0996 46.5878L95.1094 46.592L95.5043 45.6733ZM92.9616 43.5426L92.1207 44.0838L92.127 44.0935L92.9616 43.5426ZM92.6776 36.8807L91.7872 36.4254V36.4254L92.6776 36.8807ZM94.4389 34.8494L95.0103 35.6701V35.6701L94.4389 34.8494ZM97.0241 33.6705L97.2865 34.6355L97.2952 34.633L97.0241 33.6705ZM100.149 33.1165L100.234 34.1129L100.24 34.1123L100.149 33.1165ZM103.146 32.7614L103.307 33.7485L103.319 33.7464L103.146 32.7614ZM104.794 32.2074L105.364 33.0288L105.369 33.0256L104.794 32.2074ZM104.567 29.4091L105.188 28.6253V28.6253L104.567 29.4091ZM100.32 29.4091L99.7397 28.5944V28.5944L100.32 29.4091ZM99.2543 31.0568L99.2188 32.0562L100.055 32.0858L100.232 31.2682L99.2543 31.0568ZM92.848 30.8295L91.8581 30.6881L91.7007 31.7895L92.8126 31.8289L92.848 30.8295ZM94.3111 27.2784L93.5137 26.675L93.5128 26.6761L94.3111 27.2784ZM97.5781 24.8068L97.9743 25.725L97.9773 25.7237L97.5781 24.8068ZM106.442 24.3949L106.17 25.3573L106.177 25.3593L106.442 24.3949ZM109.51 25.8153L108.927 26.6279L108.933 26.6321L109.51 25.8153ZM111.527 28.0881L110.642 28.5538L110.646 28.5611L111.527 28.0881ZM112.251 46V47H113.251V46H112.251ZM105.717 46H104.717V47H105.717V46ZM105.717 42.9602H106.717V41.9602H105.717V42.9602ZM105.547 42.9602V41.9602H104.943L104.662 42.4949L105.547 42.9602ZM104.055 44.8352L103.411 44.0709L103.405 44.076L104.055 44.8352ZM101.939 45.9858L101.639 45.0317L101.636 45.0327L101.939 45.9858ZM103.374 41.3693L102.926 40.4749L102.921 40.4777L103.374 41.3693ZM104.822 40.1193L105.65 40.6808L105.654 40.674L104.822 40.1193ZM105.362 36.1705H106.362V34.5178L104.898 35.2846L105.362 36.1705ZM104.638 36.4545L104.35 35.4967L104.341 35.4995L104.638 36.4545ZM102.706 36.8949L102.866 37.882V37.882L102.706 36.8949ZM101.697 37.0511L101.552 36.0617L101.54 36.0636L101.697 37.0511ZM100.021 37.5341L99.5964 36.6288L99.5892 36.6323L100.021 37.5341ZM98.9702 38.3864L98.152 37.8114L98.1488 37.816L98.9702 38.3864ZM99.3821 41.2557L98.7868 42.0593L98.7939 42.0644L99.3821 41.2557ZM99.2116 46.3693V45.3693C97.9307 45.3693 96.8331 45.156 95.8992 44.7546L95.5043 45.6733L95.1094 46.592C96.3345 47.1186 97.7085 47.3693 99.2116 47.3693V46.3693ZM95.5043 45.6733L95.9089 44.7588C95.0082 44.3603 94.3123 43.7736 93.7963 42.9918L92.9616 43.5426L92.127 44.0935C92.861 45.2055 93.8601 46.0393 95.0996 46.5878L95.5043 45.6733ZM92.9616 43.5426L93.8026 43.0014C93.3153 42.2443 93.0384 41.247 93.0384 39.9489H92.0384H91.0384C91.0384 41.5295 91.377 42.9281 92.1207 44.0838L92.9616 43.5426ZM92.0384 39.9489H93.0384C93.0384 38.8499 93.2319 37.993 93.5679 37.336L92.6776 36.8807L91.7872 36.4254C91.2709 37.435 91.0384 38.6236 91.0384 39.9489H92.0384ZM92.6776 36.8807L93.5679 37.336C93.9214 36.6447 94.4006 36.0946 95.0103 35.6701L94.4389 34.8494L93.8676 34.0287C92.981 34.6459 92.286 35.45 91.7872 36.4254L92.6776 36.8807ZM94.4389 34.8494L95.0103 35.6701C95.6547 35.2215 96.4096 34.8738 97.2865 34.6354L97.0241 33.6705L96.7618 32.7055C95.6879 32.9974 94.7193 33.4357 93.8676 34.0287L94.4389 34.8494ZM97.0241 33.6705L97.2952 34.633C98.2042 34.3771 99.1832 34.2027 100.234 34.1128L100.149 33.1165L100.064 32.1201C98.8992 32.2197 97.7948 32.4146 96.7531 32.7079L97.0241 33.6705ZM100.149 33.1165L100.24 34.1123C101.492 33.9977 102.517 33.8768 103.307 33.7484L103.146 32.7614L102.986 31.7743C102.261 31.8921 101.288 32.008 100.058 32.1206L100.149 33.1165ZM103.146 32.7614L103.319 33.7464C104.118 33.6066 104.842 33.3918 105.364 33.0288L104.794 32.2074L104.224 31.386C104.065 31.4964 103.69 31.651 102.974 31.7763L103.146 32.7614ZM104.794 32.2074L105.369 33.0256C105.998 32.5835 106.32 31.926 106.32 31.1705H105.32H104.32C104.32 31.2593 104.303 31.2982 104.296 31.3114C104.29 31.3232 104.275 31.3502 104.219 31.3892L104.794 32.2074ZM105.32 31.1705H106.32V31.0994H105.32H104.32V31.1705H105.32ZM105.32 31.0994H106.32C106.32 30.1128 105.964 29.2406 105.188 28.6253L104.567 29.4091L103.946 30.1928C104.173 30.373 104.32 30.6278 104.32 31.0994H105.32ZM104.567 29.4091L105.188 28.6253C104.458 28.0474 103.539 27.8125 102.536 27.8125V28.8125V29.8125C103.237 29.8125 103.671 29.9754 103.946 30.1928L104.567 29.4091ZM102.536 28.8125V27.8125C101.479 27.8125 100.517 28.0413 99.7397 28.5944L100.32 29.4091L100.9 30.2238C101.24 29.9815 101.755 29.8125 102.536 29.8125V28.8125ZM100.32 29.4091L99.7397 28.5944C98.968 29.1437 98.4784 29.9133 98.2768 30.8455L99.2543 31.0568L100.232 31.2682C100.333 30.7989 100.554 30.4699 100.9 30.2238L100.32 29.4091ZM99.2543 31.0568L99.2897 30.0574L92.8835 29.8302L92.848 30.8295L92.8126 31.8289L99.2188 32.0562L99.2543 31.0568ZM92.848 30.8295L93.838 30.971C94.0041 29.808 94.4279 28.7838 95.1093 27.8807L94.3111 27.2784L93.5128 26.6761C92.6223 27.8564 92.0707 29.1996 91.8581 30.6881L92.848 30.8295ZM94.3111 27.2784L95.1085 27.8819C95.7856 26.9872 96.7275 26.263 97.9743 25.725L97.5781 24.8068L97.1819 23.8887C95.6636 24.5438 94.4275 25.4674 93.5137 26.675L94.3111 27.2784ZM97.5781 24.8068L97.9773 25.7237C99.213 25.1857 100.741 24.8977 102.592 24.8977V23.8977V22.8977C100.542 22.8977 98.7273 23.2158 97.1789 23.8899L97.5781 24.8068ZM102.592 23.8977V24.8977C103.905 24.8977 105.096 25.054 106.17 25.3573L106.442 24.3949L106.713 23.4325C105.439 23.0729 104.064 22.8977 102.592 22.8977V23.8977ZM106.442 24.3949L106.177 25.3593C107.253 25.6541 108.164 26.0807 108.927 26.6279L109.51 25.8153L110.093 25.0028C109.113 24.3 107.979 23.7796 106.706 23.4305L106.442 24.3949ZM109.51 25.8153L108.933 26.6321C109.682 27.1612 110.246 27.8008 110.642 28.5538L111.527 28.0881L112.412 27.6223C111.861 26.5761 111.081 25.7006 110.087 24.9986L109.51 25.8153ZM111.527 28.0881L110.646 28.5611C111.041 29.297 111.251 30.1582 111.251 31.1705H112.251H113.251C113.251 29.8721 112.979 28.6783 112.408 27.6151L111.527 28.0881ZM112.251 31.1705H111.251V46H112.251H113.251V31.1705H112.251ZM112.251 46V45H105.717V46V47H112.251V46ZM105.717 46H106.717V42.9602H105.717H104.717V46H105.717ZM105.717 42.9602V41.9602H105.547V42.9602V43.9602H105.717V42.9602ZM105.547 42.9602L104.662 42.4949C104.33 43.1254 103.913 43.6471 103.411 44.0709L104.055 44.8352L104.7 45.5995C105.41 45.0006 105.987 44.2723 106.432 43.4255L105.547 42.9602ZM104.055 44.8352L103.405 44.076C102.919 44.4919 102.336 44.813 101.639 45.0317L101.939 45.9858L102.238 46.9399C103.171 46.6472 103.998 46.2012 104.706 45.5945L104.055 44.8352ZM101.939 45.9858L101.636 45.0327C100.946 45.2518 100.142 45.3693 99.2116 45.3693V46.3693V47.3693C100.308 47.3693 101.322 47.2311 102.242 46.9389L101.939 45.9858ZM101.357 41.8239V42.8239C102.243 42.8239 103.074 42.6433 103.826 42.2609L103.374 41.3693L102.921 40.4777C102.48 40.7014 101.966 40.8239 101.357 40.8239V41.8239ZM103.374 41.3693L103.821 42.2637C104.571 41.8887 105.188 41.361 105.65 40.6808L104.822 40.1193L103.995 39.5578C103.737 39.9382 103.388 40.2439 102.926 40.4749L103.374 41.3693ZM104.822 40.1193L105.654 40.674C106.134 39.9545 106.362 39.1325 106.362 38.2443H105.362H104.362C104.362 38.7766 104.23 39.2046 103.99 39.5646L104.822 40.1193ZM105.362 38.2443H106.362V36.1705H105.362H104.362V38.2443H105.362ZM105.362 36.1705L104.898 35.2846C104.77 35.3515 104.592 35.4244 104.35 35.4967L104.638 36.4545L104.925 37.4124C105.252 37.3143 105.556 37.1977 105.826 37.0563L105.362 36.1705ZM104.638 36.4545L104.341 35.4995C104.095 35.576 103.817 35.6501 103.506 35.7212L103.729 36.696L103.952 37.6709C104.303 37.5905 104.631 37.5036 104.934 37.4096L104.638 36.4545ZM103.729 36.696L103.506 35.7212C103.196 35.792 102.876 35.8542 102.546 35.9078L102.706 36.8949L102.866 37.882C103.237 37.8219 103.598 37.7516 103.952 37.6709L103.729 36.696ZM102.706 36.8949L102.546 35.9078C102.2 35.9639 101.869 36.0152 101.552 36.0618L101.697 37.0511L101.843 38.0405C102.17 37.9924 102.511 37.9395 102.866 37.882L102.706 36.8949ZM101.697 37.0511L101.54 36.0636C100.819 36.1785 100.166 36.3616 99.5964 36.6289L100.021 37.5341L100.446 38.4393C100.805 38.271 101.269 38.1321 101.855 38.0387L101.697 37.0511ZM100.021 37.5341L99.5892 36.6323C99.0075 36.911 98.5129 37.2978 98.152 37.8114L98.9702 38.3864L99.7884 38.9613C99.9199 38.7742 100.126 38.5928 100.453 38.4359L100.021 37.5341ZM98.9702 38.3864L98.1488 37.816C97.7799 38.3472 97.6151 38.9603 97.6151 39.608H98.6151H99.6151C99.6151 39.3087 99.687 39.1073 99.7915 38.9568L98.9702 38.3864ZM98.6151 39.608H97.6151C97.6151 40.5969 97.9849 41.4652 98.7869 42.0592L99.3821 41.2557L99.9773 40.4521C99.7565 40.2886 99.6151 40.0584 99.6151 39.608H98.6151ZM99.3821 41.2557L98.7939 42.0644C99.5224 42.5942 100.4 42.8239 101.357 42.8239V41.8239V40.8239C100.722 40.8239 100.283 40.6747 99.9703 40.4469L99.3821 41.2557ZM116.499 46H115.499V47H116.499V46ZM116.499 24.1818V23.1818H115.499V24.1818H116.499ZM123.246 24.1818H124.246V23.1818H123.246V24.1818ZM123.246 28.1591H122.246V29.1591H123.246V28.1591ZM123.473 28.1591V29.1591H124.234L124.437 28.4254L123.473 28.1591ZM125.419 24.9489L126.034 25.7378L126.039 25.7337L125.419 24.9489ZM129.553 23.9545L129.415 24.945L129.429 24.9469L129.442 24.9484L129.553 23.9545ZM130.504 24.1392H131.504V23.3882L130.783 23.1789L130.504 24.1392ZM130.504 30.1761L130.18 31.1221L131.504 31.5761V30.1761H130.504ZM129.197 29.9062L129.073 30.8985L129.076 30.8988L129.197 29.9062ZM125.547 30.3608L126.029 31.2368L126.034 31.2344L125.547 30.3608ZM123.999 31.8807L123.133 31.3791L123.131 31.3832L123.999 31.8807ZM123.445 46V47H124.445V46H123.445ZM116.499 46H117.499V24.1818H116.499H115.499V46H116.499ZM116.499 24.1818V25.1818H123.246V24.1818V23.1818H116.499V24.1818ZM123.246 24.1818H122.246V28.1591H123.246H124.246V24.1818H123.246ZM123.246 28.1591V29.1591H123.473V28.1591V27.1591H123.246V28.1591ZM123.473 28.1591L124.437 28.4254C124.795 27.1292 125.349 26.2707 126.034 25.7378L125.419 24.9489L124.805 24.16C123.689 25.0285 122.946 26.3102 122.509 27.8928L123.473 28.1591ZM125.419 24.9489L126.039 25.7337C126.754 25.1689 127.58 24.8835 128.558 24.8835V23.8835V22.8835C127.15 22.8835 125.883 23.3084 124.799 24.164L125.419 24.9489ZM128.558 23.8835V24.8835C128.831 24.8835 129.117 24.9036 129.415 24.945L129.553 23.9545L129.69 22.9641C129.307 22.9108 128.929 22.8835 128.558 22.8835V23.8835ZM129.553 23.9545L129.442 24.9484C129.733 24.9807 129.993 25.0321 130.225 25.0996L130.504 24.1392L130.783 23.1789C130.428 23.0758 130.054 23.0041 129.663 22.9607L129.553 23.9545ZM130.504 24.1392H129.504V30.1761H130.504H131.504V24.1392H130.504ZM130.504 30.1761L130.829 29.2302C130.406 29.0853 129.895 28.9844 129.319 28.9137L129.197 29.9062L129.076 30.8988C129.58 30.9607 129.94 31.0397 130.18 31.1221L130.504 30.1761ZM129.197 29.9062L129.321 28.914C128.761 28.8439 128.245 28.8068 127.777 28.8068V29.8068V30.8068C128.143 30.8068 128.573 30.836 129.073 30.8985L129.197 29.9062ZM127.777 29.8068V28.8068C126.798 28.8068 125.884 29.028 125.06 29.4872L125.547 30.3608L126.034 31.2344C126.535 30.955 127.108 30.8068 127.777 30.8068V29.8068ZM125.547 30.3608L125.064 29.4848C124.25 29.9335 123.602 30.5705 123.133 31.3792L123.999 31.8807L124.864 32.3822C125.153 31.884 125.537 31.5077 126.029 31.2367L125.547 30.3608ZM123.999 31.8807L123.131 31.3832C122.661 32.203 122.445 33.1382 122.445 34.1534H123.445H124.445C124.445 33.4262 124.598 32.8463 124.866 32.3782L123.999 31.8807ZM123.445 34.1534H122.445V46H123.445H124.445V34.1534H123.445ZM123.445 46V45H116.499V46V47H123.445V46ZM146.665 24.1818H147.665V23.1818H146.665V24.1818ZM146.665 29.2955V30.2955H147.665V29.2955H146.665ZM132.901 29.2955H131.901V30.2955H132.901V29.2955ZM132.901 24.1818V23.1818H131.901V24.1818H132.901ZM135.785 18.9545V17.9545H134.785V18.9545H135.785ZM142.731 18.9545H143.731V17.9545H142.731V18.9545ZM142.93 40.1761L142.035 40.6233L142.045 40.6428L142.056 40.6618L142.93 40.1761ZM143.54 40.7301L143.147 41.6493L143.161 41.6553L143.175 41.6609L143.54 40.7301ZM145.33 40.8153L145.489 41.8026L145.502 41.8006L145.515 41.7982L145.33 40.8153ZM146.012 40.6733L146.991 40.4681L146.778 39.4511L145.77 39.7032L146.012 40.6733ZM147.063 45.6875L147.338 46.649L148.233 46.3933L148.042 45.4823L147.063 45.6875ZM145.657 46.0426L145.429 45.069L145.425 45.0698L145.657 46.0426ZM143.512 46.3125L143.467 45.3135L143.466 45.3136L143.512 46.3125ZM139.322 45.7443L138.949 46.6723L138.958 46.6759L139.322 45.7443ZM136.665 43.5852L135.816 44.113L135.82 44.1189L136.665 43.5852ZM135.785 39.9062L136.785 39.9191V39.9062H135.785ZM146.665 24.1818H145.665V29.2955H146.665H147.665V24.1818H146.665ZM146.665 29.2955V28.2955H132.901V29.2955V30.2955H146.665V29.2955ZM132.901 29.2955H133.901V24.1818H132.901H131.901V29.2955H132.901ZM132.901 24.1818V25.1818H146.665V24.1818V23.1818H132.901V24.1818ZM135.785 18.9545V19.9545H142.731V18.9545V17.9545H135.785V18.9545ZM142.731 18.9545H141.731V39.1392H142.731H143.731V18.9545H142.731ZM142.731 39.1392H141.731C141.731 39.6574 141.81 40.1721 142.035 40.6233L142.93 40.1761L143.824 39.7289C143.785 39.6498 143.731 39.4733 143.731 39.1392H142.731ZM142.93 40.1761L142.056 40.6618C142.304 41.1083 142.675 41.447 143.147 41.6493L143.54 40.7301L143.934 39.811C143.876 39.7859 143.84 39.7554 143.804 39.6905L142.93 40.1761ZM143.54 40.7301L143.175 41.6609C143.585 41.8221 144.033 41.8864 144.492 41.8864V40.8864V39.8864C144.213 39.8864 144.026 39.8464 143.906 39.7994L143.54 40.7301ZM144.492 40.8864V41.8864C144.817 41.8864 145.15 41.8574 145.489 41.8026L145.33 40.8153L145.171 39.8281C144.924 39.868 144.698 39.8864 144.492 39.8864V40.8864ZM145.33 40.8153L145.515 41.7982C145.822 41.7405 146.073 41.6888 146.255 41.6434L146.012 40.6733L145.77 39.7032C145.648 39.7336 145.444 39.7765 145.146 39.8325L145.33 40.8153ZM146.012 40.6733L145.033 40.8785L146.084 45.8927L147.063 45.6875L148.042 45.4823L146.991 40.4681L146.012 40.6733ZM147.063 45.6875L146.788 44.726C146.48 44.8141 146.029 44.9282 145.429 45.069L145.657 46.0426L145.885 47.0162C146.497 46.8729 146.983 46.7503 147.338 46.649L147.063 45.6875ZM145.657 46.0426L145.425 45.0698C144.907 45.1932 144.258 45.2776 143.467 45.3135L143.512 46.3125L143.557 47.3115C144.433 47.2717 145.214 47.1761 145.889 47.0154L145.657 46.0426ZM143.512 46.3125L143.466 45.3136C141.936 45.3847 140.686 45.2034 139.685 44.8127L139.322 45.7443L138.958 46.6759C140.287 47.1943 141.831 47.3918 143.559 47.3114L143.512 46.3125ZM139.322 45.7443L139.694 44.8164C138.718 44.4242 138.005 43.8346 137.511 43.0515L136.665 43.5852L135.82 44.1189C136.557 45.2866 137.615 46.1364 138.949 46.6723L139.322 45.7443ZM136.665 43.5852L137.515 43.0575C137.035 42.2847 136.768 41.2595 136.785 39.9191L135.785 39.9062L134.785 39.8934C134.764 41.5075 135.084 42.935 135.816 44.113L136.665 43.5852ZM135.785 39.9062H136.785V18.9545H135.785H134.785V39.9062H135.785Z" fill="black" mask="url(#path-4-outside-1_85_42)"/>
</g>
<g id="Daily Bonus" filter="url(#filter3_dd_85_42)">
<mask id="path-6-outside-2_85_42" maskUnits="userSpaceOnUse" x="47" y="73" width="106" height="20" fill="black">
<rect fill="white" x="47" y="73" width="106" height="20"/>
<path d="M53.4204 88H48.5816V74.9091H53.414C54.7478 74.9091 55.8962 75.1712 56.8593 75.6953C57.8266 76.2152 58.5724 76.9652 59.0965 77.9453C59.6207 78.9212 59.8827 80.0888 59.8827 81.4482C59.8827 82.8118 59.6207 83.9837 59.0965 84.9638C58.5766 85.9439 57.833 86.696 56.8657 87.2202C55.8983 87.7401 54.7499 88 53.4204 88ZM51.7457 85.3026H53.2989C54.0319 85.3026 54.6519 85.179 55.159 84.9318C55.6704 84.6804 56.056 84.2734 56.316 83.7109C56.5802 83.1442 56.7123 82.3899 56.7123 81.4482C56.7123 80.5064 56.5802 79.7564 56.316 79.1982C56.0518 78.6357 55.6618 78.2308 55.1462 77.9837C54.6349 77.7322 54.0042 77.6065 53.2542 77.6065H51.7457V85.3026ZM64.4978 88.1662C63.8714 88.1662 63.3153 88.0618 62.8295 87.853C62.3479 87.6399 61.9665 87.3203 61.6853 86.8942C61.4083 86.4638 61.2698 85.9247 61.2698 85.277C61.2698 84.7315 61.3657 84.2713 61.5574 83.8963C61.7492 83.5213 62.0134 83.2166 62.3501 82.9822C62.6867 82.7479 63.0745 82.571 63.5134 82.4517C63.9523 82.3281 64.4211 82.245 64.9197 82.2024C65.4779 82.1513 65.9275 82.098 66.2684 82.0426C66.6093 81.983 66.8564 81.8999 67.0099 81.7933C67.1675 81.6825 67.2464 81.527 67.2464 81.3267V81.2947C67.2464 80.9666 67.1334 80.7131 66.9076 80.5341C66.6817 80.3551 66.377 80.2656 65.9935 80.2656C65.5802 80.2656 65.2478 80.3551 64.9964 80.5341C64.7449 80.7131 64.5851 80.9602 64.517 81.2756L61.6341 81.1733C61.7194 80.5767 61.9388 80.044 62.2925 79.5753C62.6505 79.1023 63.1405 78.7315 63.7627 78.4631C64.3891 78.1903 65.1412 78.054 66.0191 78.054C66.6455 78.054 67.2229 78.1286 67.7513 78.2777C68.2797 78.4226 68.74 78.6357 69.132 78.9169C69.5241 79.1939 69.8266 79.5348 70.0397 79.9396C70.257 80.3445 70.3657 80.8068 70.3657 81.3267V88H67.4253V86.6321H67.3486C67.1739 86.9645 66.9502 87.2457 66.6775 87.4759C66.409 87.706 66.0915 87.8786 65.7251 87.9936C65.3628 88.1087 64.9537 88.1662 64.4978 88.1662ZM65.463 86.1207C65.7996 86.1207 66.1022 86.0526 66.3707 85.9162C66.6434 85.7798 66.8607 85.5923 67.0226 85.3537C67.1846 85.1108 67.2655 84.8295 67.2655 84.5099V83.5767C67.176 83.6236 67.0674 83.6662 66.9395 83.7045C66.816 83.7429 66.6796 83.7791 66.5305 83.8132C66.3813 83.8473 66.2279 83.8771 66.0702 83.9027C65.9126 83.9283 65.7613 83.9517 65.6164 83.973C65.3224 84.0199 65.0709 84.0923 64.8621 84.1903C64.6576 84.2884 64.4999 84.4162 64.3891 84.5739C64.2826 84.7273 64.2293 84.9105 64.2293 85.1236C64.2293 85.4474 64.3444 85.6946 64.5745 85.8651C64.8089 86.0355 65.105 86.1207 65.463 86.1207ZM72.2769 88V78.1818H75.4026V88H72.2769ZM73.843 77.0376C73.404 77.0376 73.0269 76.8928 72.7116 76.603C72.3962 76.3089 72.2385 75.9553 72.2385 75.5419C72.2385 75.1328 72.3962 74.7834 72.7116 74.4936C73.0269 74.1996 73.404 74.0526 73.843 74.0526C74.2861 74.0526 74.6633 74.1996 74.9743 74.4936C75.2897 74.7834 75.4474 75.1328 75.4474 75.5419C75.4474 75.9553 75.2897 76.3089 74.9743 76.603C74.6633 76.8928 74.2861 77.0376 73.843 77.0376ZM80.5178 74.9091V88H77.3921V74.9091H80.5178ZM84.4186 91.6818C84.0436 91.6818 83.6899 91.652 83.3575 91.5923C83.0251 91.5369 82.7396 91.4624 82.501 91.3686L83.1913 89.0994C83.4981 89.2017 83.7751 89.2614 84.0223 89.2784C84.2737 89.2955 84.4889 89.255 84.6679 89.157C84.8511 89.0632 84.9917 88.8949 85.0898 88.652L85.2112 88.358L81.7211 78.1818H84.9939L86.8028 85.1875H86.9051L88.7396 78.1818H92.0315L88.3305 88.9396C88.1515 89.4766 87.898 89.9496 87.5699 90.3587C87.246 90.772 86.8263 91.0959 86.3106 91.3303C85.7993 91.5646 85.1686 91.6818 84.4186 91.6818ZM97.0972 88V74.9091H102.556C103.536 74.9091 104.356 75.0476 105.017 75.3246C105.682 75.6016 106.18 75.9893 106.513 76.4879C106.849 76.9865 107.018 77.5639 107.018 78.2202C107.018 78.7188 106.913 79.1641 106.704 79.5561C106.496 79.9439 106.208 80.2656 105.842 80.5213C105.475 80.777 105.051 80.956 104.57 81.0582V81.1861C105.098 81.2116 105.586 81.3544 106.033 81.6143C106.485 81.8743 106.847 82.2365 107.12 82.701C107.393 83.1612 107.529 83.7067 107.529 84.3374C107.529 85.0405 107.35 85.669 106.992 86.223C106.634 86.7727 106.116 87.2074 105.439 87.527C104.761 87.8423 103.939 88 102.972 88H97.0972ZM100.261 85.4496H102.217C102.903 85.4496 103.408 85.3196 103.732 85.0597C104.06 84.7997 104.224 84.4375 104.224 83.973C104.224 83.6364 104.146 83.3466 103.988 83.1037C103.83 82.8565 103.606 82.6669 103.317 82.5348C103.027 82.3984 102.68 82.3303 102.275 82.3303H100.261V85.4496ZM100.261 80.2912H102.013C102.358 80.2912 102.665 80.2337 102.933 80.1186C103.202 80.0036 103.41 79.8374 103.56 79.62C103.713 79.4027 103.79 79.1406 103.79 78.8338C103.79 78.3949 103.634 78.0497 103.323 77.7983C103.012 77.5469 102.592 77.4212 102.064 77.4212H100.261V80.2912ZM113.633 88.1854C112.602 88.1854 111.716 87.9744 110.974 87.5526C110.237 87.1264 109.668 86.5341 109.268 85.7756C108.871 85.0128 108.673 84.1286 108.673 83.1229C108.673 82.1129 108.871 81.2287 109.268 80.4702C109.668 79.7074 110.237 79.1151 110.974 78.6932C111.716 78.267 112.602 78.054 113.633 78.054C114.665 78.054 115.549 78.267 116.286 78.6932C117.028 79.1151 117.597 79.7074 117.993 80.4702C118.393 81.2287 118.594 82.1129 118.594 83.1229C118.594 84.1286 118.393 85.0128 117.993 85.7756C117.597 86.5341 117.028 87.1264 116.286 87.5526C115.549 87.9744 114.665 88.1854 113.633 88.1854ZM113.653 85.8267C114.028 85.8267 114.345 85.7116 114.605 85.4815C114.865 85.2514 115.063 84.9318 115.199 84.5227C115.34 84.1136 115.41 83.6406 115.41 83.1037C115.41 82.5582 115.34 82.081 115.199 81.6719C115.063 81.2628 114.865 80.9432 114.605 80.7131C114.345 80.483 114.028 80.3679 113.653 80.3679C113.265 80.3679 112.937 80.483 112.668 80.7131C112.404 80.9432 112.202 81.2628 112.061 81.6719C111.925 82.081 111.856 82.5582 111.856 83.1037C111.856 83.6406 111.925 84.1136 112.061 84.5227C112.202 84.9318 112.404 85.2514 112.668 85.4815C112.937 85.7116 113.265 85.8267 113.653 85.8267ZM123.321 82.4006V88H120.195V78.1818H123.167V79.9844H123.276C123.493 79.3835 123.864 78.9126 124.388 78.5717C124.912 78.2266 125.536 78.054 126.261 78.054C126.951 78.054 127.55 78.2095 128.057 78.5206C128.568 78.8274 128.965 79.2578 129.246 79.8118C129.532 80.3615 129.672 81.005 129.668 81.7422V88H126.542V82.3558C126.546 81.8104 126.408 81.3842 126.127 81.0774C125.85 80.7706 125.464 80.6172 124.97 80.6172C124.642 80.6172 124.352 80.6896 124.1 80.8345C123.853 80.9751 123.661 81.1776 123.525 81.4418C123.393 81.706 123.325 82.0256 123.321 82.4006ZM137.938 83.7621V78.1818H141.057V88H138.078V86.1719H137.976C137.759 86.7727 137.388 87.25 136.864 87.6037C136.344 87.9531 135.715 88.1278 134.978 88.1278C134.309 88.1278 133.721 87.9744 133.214 87.6676C132.707 87.3608 132.313 86.9325 132.031 86.3828C131.75 85.8288 131.607 85.1811 131.603 84.4396V78.1818H134.729V83.826C134.733 84.3587 134.874 84.7784 135.151 85.0852C135.428 85.392 135.805 85.5455 136.282 85.5455C136.593 85.5455 136.872 85.4773 137.119 85.3409C137.371 85.2003 137.569 84.9979 137.714 84.7337C137.863 84.4652 137.938 84.1413 137.938 83.7621ZM151.618 81.1797L148.748 81.2564C148.718 81.0518 148.637 80.8707 148.505 80.7131C148.373 80.5511 148.201 80.4254 147.987 80.3359C147.779 80.2422 147.536 80.1953 147.259 80.1953C146.897 80.1953 146.588 80.2678 146.332 80.4126C146.081 80.5575 145.957 80.7536 145.961 81.0007C145.957 81.1925 146.034 81.3587 146.191 81.4993C146.353 81.6399 146.641 81.7528 147.054 81.8381L148.946 82.196C149.926 82.3835 150.655 82.6946 151.132 83.1293C151.614 83.5639 151.857 84.1392 151.861 84.8551C151.857 85.5284 151.657 86.1143 151.26 86.6129C150.868 87.1115 150.331 87.4993 149.649 87.7763C148.968 88.049 148.188 88.1854 147.31 88.1854C145.908 88.1854 144.802 87.8977 143.992 87.3224C143.187 86.7429 142.727 85.9673 142.612 84.9957L145.699 84.919C145.767 85.277 145.944 85.5497 146.23 85.7372C146.515 85.9247 146.88 86.0185 147.323 86.0185C147.723 86.0185 148.049 85.9439 148.301 85.7947C148.552 85.6456 148.68 85.4474 148.684 85.2003C148.68 84.9787 148.582 84.8018 148.39 84.6697C148.198 84.5334 147.898 84.4268 147.489 84.3501L145.776 84.0241C144.791 83.8452 144.059 83.5149 143.577 83.0334C143.095 82.5476 142.857 81.9297 142.861 81.1797C142.857 80.5234 143.032 79.9631 143.385 79.4986C143.739 79.0298 144.242 78.6719 144.894 78.4247C145.546 78.1776 146.315 78.054 147.201 78.054C148.531 78.054 149.579 78.3331 150.346 78.8913C151.113 79.4453 151.537 80.2081 151.618 81.1797Z"/>
</mask>
<path d="M53.4204 88H48.5816V74.9091H53.414C54.7478 74.9091 55.8962 75.1712 56.8593 75.6953C57.8266 76.2152 58.5724 76.9652 59.0965 77.9453C59.6207 78.9212 59.8827 80.0888 59.8827 81.4482C59.8827 82.8118 59.6207 83.9837 59.0965 84.9638C58.5766 85.9439 57.833 86.696 56.8657 87.2202C55.8983 87.7401 54.7499 88 53.4204 88ZM51.7457 85.3026H53.2989C54.0319 85.3026 54.6519 85.179 55.159 84.9318C55.6704 84.6804 56.056 84.2734 56.316 83.7109C56.5802 83.1442 56.7123 82.3899 56.7123 81.4482C56.7123 80.5064 56.5802 79.7564 56.316 79.1982C56.0518 78.6357 55.6618 78.2308 55.1462 77.9837C54.6349 77.7322 54.0042 77.6065 53.2542 77.6065H51.7457V85.3026ZM64.4978 88.1662C63.8714 88.1662 63.3153 88.0618 62.8295 87.853C62.3479 87.6399 61.9665 87.3203 61.6853 86.8942C61.4083 86.4638 61.2698 85.9247 61.2698 85.277C61.2698 84.7315 61.3657 84.2713 61.5574 83.8963C61.7492 83.5213 62.0134 83.2166 62.3501 82.9822C62.6867 82.7479 63.0745 82.571 63.5134 82.4517C63.9523 82.3281 64.4211 82.245 64.9197 82.2024C65.4779 82.1513 65.9275 82.098 66.2684 82.0426C66.6093 81.983 66.8564 81.8999 67.0099 81.7933C67.1675 81.6825 67.2464 81.527 67.2464 81.3267V81.2947C67.2464 80.9666 67.1334 80.7131 66.9076 80.5341C66.6817 80.3551 66.377 80.2656 65.9935 80.2656C65.5802 80.2656 65.2478 80.3551 64.9964 80.5341C64.7449 80.7131 64.5851 80.9602 64.517 81.2756L61.6341 81.1733C61.7194 80.5767 61.9388 80.044 62.2925 79.5753C62.6505 79.1023 63.1405 78.7315 63.7627 78.4631C64.3891 78.1903 65.1412 78.054 66.0191 78.054C66.6455 78.054 67.2229 78.1286 67.7513 78.2777C68.2797 78.4226 68.74 78.6357 69.132 78.9169C69.5241 79.1939 69.8266 79.5348 70.0397 79.9396C70.257 80.3445 70.3657 80.8068 70.3657 81.3267V88H67.4253V86.6321H67.3486C67.1739 86.9645 66.9502 87.2457 66.6775 87.4759C66.409 87.706 66.0915 87.8786 65.7251 87.9936C65.3628 88.1087 64.9537 88.1662 64.4978 88.1662ZM65.463 86.1207C65.7996 86.1207 66.1022 86.0526 66.3707 85.9162C66.6434 85.7798 66.8607 85.5923 67.0226 85.3537C67.1846 85.1108 67.2655 84.8295 67.2655 84.5099V83.5767C67.176 83.6236 67.0674 83.6662 66.9395 83.7045C66.816 83.7429 66.6796 83.7791 66.5305 83.8132C66.3813 83.8473 66.2279 83.8771 66.0702 83.9027C65.9126 83.9283 65.7613 83.9517 65.6164 83.973C65.3224 84.0199 65.0709 84.0923 64.8621 84.1903C64.6576 84.2884 64.4999 84.4162 64.3891 84.5739C64.2826 84.7273 64.2293 84.9105 64.2293 85.1236C64.2293 85.4474 64.3444 85.6946 64.5745 85.8651C64.8089 86.0355 65.105 86.1207 65.463 86.1207ZM72.2769 88V78.1818H75.4026V88H72.2769ZM73.843 77.0376C73.404 77.0376 73.0269 76.8928 72.7116 76.603C72.3962 76.3089 72.2385 75.9553 72.2385 75.5419C72.2385 75.1328 72.3962 74.7834 72.7116 74.4936C73.0269 74.1996 73.404 74.0526 73.843 74.0526C74.2861 74.0526 74.6633 74.1996 74.9743 74.4936C75.2897 74.7834 75.4474 75.1328 75.4474 75.5419C75.4474 75.9553 75.2897 76.3089 74.9743 76.603C74.6633 76.8928 74.2861 77.0376 73.843 77.0376ZM80.5178 74.9091V88H77.3921V74.9091H80.5178ZM84.4186 91.6818C84.0436 91.6818 83.6899 91.652 83.3575 91.5923C83.0251 91.5369 82.7396 91.4624 82.501 91.3686L83.1913 89.0994C83.4981 89.2017 83.7751 89.2614 84.0223 89.2784C84.2737 89.2955 84.4889 89.255 84.6679 89.157C84.8511 89.0632 84.9917 88.8949 85.0898 88.652L85.2112 88.358L81.7211 78.1818H84.9939L86.8028 85.1875H86.9051L88.7396 78.1818H92.0315L88.3305 88.9396C88.1515 89.4766 87.898 89.9496 87.5699 90.3587C87.246 90.772 86.8263 91.0959 86.3106 91.3303C85.7993 91.5646 85.1686 91.6818 84.4186 91.6818ZM97.0972 88V74.9091H102.556C103.536 74.9091 104.356 75.0476 105.017 75.3246C105.682 75.6016 106.18 75.9893 106.513 76.4879C106.849 76.9865 107.018 77.5639 107.018 78.2202C107.018 78.7188 106.913 79.1641 106.704 79.5561C106.496 79.9439 106.208 80.2656 105.842 80.5213C105.475 80.777 105.051 80.956 104.57 81.0582V81.1861C105.098 81.2116 105.586 81.3544 106.033 81.6143C106.485 81.8743 106.847 82.2365 107.12 82.701C107.393 83.1612 107.529 83.7067 107.529 84.3374C107.529 85.0405 107.35 85.669 106.992 86.223C106.634 86.7727 106.116 87.2074 105.439 87.527C104.761 87.8423 103.939 88 102.972 88H97.0972ZM100.261 85.4496H102.217C102.903 85.4496 103.408 85.3196 103.732 85.0597C104.06 84.7997 104.224 84.4375 104.224 83.973C104.224 83.6364 104.146 83.3466 103.988 83.1037C103.83 82.8565 103.606 82.6669 103.317 82.5348C103.027 82.3984 102.68 82.3303 102.275 82.3303H100.261V85.4496ZM100.261 80.2912H102.013C102.358 80.2912 102.665 80.2337 102.933 80.1186C103.202 80.0036 103.41 79.8374 103.56 79.62C103.713 79.4027 103.79 79.1406 103.79 78.8338C103.79 78.3949 103.634 78.0497 103.323 77.7983C103.012 77.5469 102.592 77.4212 102.064 77.4212H100.261V80.2912ZM113.633 88.1854C112.602 88.1854 111.716 87.9744 110.974 87.5526C110.237 87.1264 109.668 86.5341 109.268 85.7756C108.871 85.0128 108.673 84.1286 108.673 83.1229C108.673 82.1129 108.871 81.2287 109.268 80.4702C109.668 79.7074 110.237 79.1151 110.974 78.6932C111.716 78.267 112.602 78.054 113.633 78.054C114.665 78.054 115.549 78.267 116.286 78.6932C117.028 79.1151 117.597 79.7074 117.993 80.4702C118.393 81.2287 118.594 82.1129 118.594 83.1229C118.594 84.1286 118.393 85.0128 117.993 85.7756C117.597 86.5341 117.028 87.1264 116.286 87.5526C115.549 87.9744 114.665 88.1854 113.633 88.1854ZM113.653 85.8267C114.028 85.8267 114.345 85.7116 114.605 85.4815C114.865 85.2514 115.063 84.9318 115.199 84.5227C115.34 84.1136 115.41 83.6406 115.41 83.1037C115.41 82.5582 115.34 82.081 115.199 81.6719C115.063 81.2628 114.865 80.9432 114.605 80.7131C114.345 80.483 114.028 80.3679 113.653 80.3679C113.265 80.3679 112.937 80.483 112.668 80.7131C112.404 80.9432 112.202 81.2628 112.061 81.6719C111.925 82.081 111.856 82.5582 111.856 83.1037C111.856 83.6406 111.925 84.1136 112.061 84.5227C112.202 84.9318 112.404 85.2514 112.668 85.4815C112.937 85.7116 113.265 85.8267 113.653 85.8267ZM123.321 82.4006V88H120.195V78.1818H123.167V79.9844H123.276C123.493 79.3835 123.864 78.9126 124.388 78.5717C124.912 78.2266 125.536 78.054 126.261 78.054C126.951 78.054 127.55 78.2095 128.057 78.5206C128.568 78.8274 128.965 79.2578 129.246 79.8118C129.532 80.3615 129.672 81.005 129.668 81.7422V88H126.542V82.3558C126.546 81.8104 126.408 81.3842 126.127 81.0774C125.85 80.7706 125.464 80.6172 124.97 80.6172C124.642 80.6172 124.352 80.6896 124.1 80.8345C123.853 80.9751 123.661 81.1776 123.525 81.4418C123.393 81.706 123.325 82.0256 123.321 82.4006ZM137.938 83.7621V78.1818H141.057V88H138.078V86.1719H137.976C137.759 86.7727 137.388 87.25 136.864 87.6037C136.344 87.9531 135.715 88.1278 134.978 88.1278C134.309 88.1278 133.721 87.9744 133.214 87.6676C132.707 87.3608 132.313 86.9325 132.031 86.3828C131.75 85.8288 131.607 85.1811 131.603 84.4396V78.1818H134.729V83.826C134.733 84.3587 134.874 84.7784 135.151 85.0852C135.428 85.392 135.805 85.5455 136.282 85.5455C136.593 85.5455 136.872 85.4773 137.119 85.3409C137.371 85.2003 137.569 84.9979 137.714 84.7337C137.863 84.4652 137.938 84.1413 137.938 83.7621ZM151.618 81.1797L148.748 81.2564C148.718 81.0518 148.637 80.8707 148.505 80.7131C148.373 80.5511 148.201 80.4254 147.987 80.3359C147.779 80.2422 147.536 80.1953 147.259 80.1953C146.897 80.1953 146.588 80.2678 146.332 80.4126C146.081 80.5575 145.957 80.7536 145.961 81.0007C145.957 81.1925 146.034 81.3587 146.191 81.4993C146.353 81.6399 146.641 81.7528 147.054 81.8381L148.946 82.196C149.926 82.3835 150.655 82.6946 151.132 83.1293C151.614 83.5639 151.857 84.1392 151.861 84.8551C151.857 85.5284 151.657 86.1143 151.26 86.6129C150.868 87.1115 150.331 87.4993 149.649 87.7763C148.968 88.049 148.188 88.1854 147.31 88.1854C145.908 88.1854 144.802 87.8977 143.992 87.3224C143.187 86.7429 142.727 85.9673 142.612 84.9957L145.699 84.919C145.767 85.277 145.944 85.5497 146.23 85.7372C146.515 85.9247 146.88 86.0185 147.323 86.0185C147.723 86.0185 148.049 85.9439 148.301 85.7947C148.552 85.6456 148.68 85.4474 148.684 85.2003C148.68 84.9787 148.582 84.8018 148.39 84.6697C148.198 84.5334 147.898 84.4268 147.489 84.3501L145.776 84.0241C144.791 83.8452 144.059 83.5149 143.577 83.0334C143.095 82.5476 142.857 81.9297 142.861 81.1797C142.857 80.5234 143.032 79.9631 143.385 79.4986C143.739 79.0298 144.242 78.6719 144.894 78.4247C145.546 78.1776 146.315 78.054 147.201 78.054C148.531 78.054 149.579 78.3331 150.346 78.8913C151.113 79.4453 151.537 80.2081 151.618 81.1797Z" fill="#FEFB7F"/>
<path d="M48.5816 88H47.5816V89H48.5816V88ZM48.5816 74.9091V73.9091H47.5816V74.9091H48.5816ZM56.8593 75.6953L56.3812 76.5737L56.3859 76.5762L56.8593 75.6953ZM59.0965 77.9453L58.2147 78.4169L58.2155 78.4185L59.0965 77.9453ZM59.0965 84.9638L58.2147 84.4922L58.2131 84.4952L59.0965 84.9638ZM56.8657 87.2202L57.3391 88.101L57.3421 88.0994L56.8657 87.2202ZM51.7457 85.3026H50.7457V86.3026H51.7457V85.3026ZM55.159 84.9318L55.5971 85.8307L55.6002 85.8292L55.159 84.9318ZM56.316 83.7109L55.4096 83.2884L55.4082 83.2914L56.316 83.7109ZM56.316 79.1982L55.4108 79.6233L55.4121 79.6259L56.316 79.1982ZM55.1462 77.9837L54.705 78.8811L54.714 78.8854L55.1462 77.9837ZM51.7457 77.6065V76.6065H50.7457V77.6065H51.7457ZM53.4204 88V87H48.5816V88V89H53.4204V88ZM48.5816 88H49.5816V74.9091H48.5816H47.5816V88H48.5816ZM48.5816 74.9091V75.9091H53.414V74.9091V73.9091H48.5816V74.9091ZM53.414 74.9091V75.9091C54.6166 75.9091 55.5934 76.1449 56.3813 76.5737L56.8593 75.6953L57.3373 74.817C56.199 74.1974 54.8789 73.9091 53.414 73.9091V74.9091ZM56.8593 75.6953L56.3859 76.5762C57.1775 77.0016 57.7822 77.6082 58.2147 78.4169L59.0965 77.9453L59.9783 77.4737C59.3625 76.3222 58.4757 75.4288 57.3327 74.8145L56.8593 75.6953ZM59.0965 77.9453L58.2155 78.4185C58.6457 79.2194 58.8827 80.2168 58.8827 81.4482H59.8827H60.8827C60.8827 79.9607 60.5956 78.6229 59.9775 77.4721L59.0965 77.9453ZM59.8827 81.4482H58.8827C58.8827 82.6841 58.6455 83.6865 58.2147 84.4922L59.0965 84.9638L59.9783 85.4354C60.5958 84.2808 60.8827 82.9394 60.8827 81.4482H59.8827ZM59.0965 84.9638L58.2131 84.4952C57.7847 85.3029 57.1819 85.9115 56.3893 86.3409L56.8657 87.2202L57.3421 88.0994C58.4841 87.4806 59.3686 86.5849 59.9799 85.4324L59.0965 84.9638ZM56.8657 87.2202L56.3923 86.3393C55.5981 86.7661 54.6192 87 53.4204 87V88V89C54.8806 89 56.1986 88.714 57.3391 88.101L56.8657 87.2202ZM51.7457 85.3026V86.3026H53.2989V85.3026V84.3026H51.7457V85.3026ZM53.2989 85.3026V86.3026C54.1399 86.3026 54.919 86.1612 55.5971 85.8307L55.159 84.9318L54.7209 84.0329C54.3848 84.1967 53.9238 84.3026 53.2989 84.3026V85.3026ZM55.159 84.9318L55.6002 85.8292C56.3357 85.4676 56.8766 84.8815 57.2237 84.1304L56.316 83.7109L55.4082 83.2914C55.2354 83.6653 55.005 83.8932 54.7178 84.0344L55.159 84.9318ZM56.316 83.7109L57.2223 84.1334C57.5714 83.3846 57.7123 82.4687 57.7123 81.4482H56.7123H55.7123C55.7123 82.3112 55.5889 82.9037 55.4096 83.2884L56.316 83.7109ZM56.7123 81.4482H57.7123C57.7123 80.4288 57.5718 79.514 57.2198 78.7704L56.316 79.1982L55.4121 79.6259C55.5886 79.9988 55.7123 80.584 55.7123 81.4482H56.7123ZM56.316 79.1982L57.2211 78.773C56.868 78.0213 56.3205 77.4376 55.5785 77.0819L55.1462 77.9837L54.714 78.8854C55.0032 79.0241 55.2355 79.25 55.4108 79.6233L56.316 79.1982ZM55.1462 77.9837L55.5874 77.0863C54.9025 76.7495 54.1108 76.6065 53.2542 76.6065V77.6065V78.6065C53.8976 78.6065 54.3672 78.715 54.705 78.8811L55.1462 77.9837ZM53.2542 77.6065V76.6065H51.7457V77.6065V78.6065H53.2542V77.6065ZM51.7457 77.6065H50.7457V85.3026H51.7457H52.7457V77.6065H51.7457ZM62.8295 87.853L62.4248 88.7675L62.4346 88.7717L62.8295 87.853ZM61.6853 86.8942L60.8443 87.4354L60.8507 87.445L61.6853 86.8942ZM61.5574 83.8963L60.6671 83.441V83.441L61.5574 83.8963ZM62.3501 82.9822L62.9214 83.8029V83.8029L62.3501 82.9822ZM63.5134 82.4517L63.7757 83.4167L63.7844 83.4143L63.5134 82.4517ZM64.9197 82.2024L65.0048 83.1988L65.0109 83.1982L64.9197 82.2024ZM66.2684 82.0426L66.4288 83.0297L66.4408 83.0276L66.2684 82.0426ZM67.0099 81.7933L67.5803 82.6147L67.5848 82.6115L67.0099 81.7933ZM66.9076 80.5341L67.5287 79.7503V79.7503L66.9076 80.5341ZM64.9964 80.5341L64.4164 79.7194V79.7194L64.9964 80.5341ZM64.517 81.2756L64.4815 82.2749L65.3176 82.3046L65.4944 81.4869L64.517 81.2756ZM61.6341 81.1733L60.6442 81.0319L60.4869 82.1332L61.5987 82.1727L61.6341 81.1733ZM62.2925 79.5753L61.4951 78.9718L61.4943 78.973L62.2925 79.5753ZM63.7627 78.4631L64.1589 79.3812L64.1619 79.3799L63.7627 78.4631ZM67.7513 78.2777L67.4797 79.2401L67.4869 79.2421L67.7513 78.2777ZM69.132 78.9169L68.5491 79.7295L68.555 79.7336L69.132 78.9169ZM70.0397 79.9396L69.1547 80.4054L69.1586 80.4126L70.0397 79.9396ZM70.3657 88V89H71.3657V88H70.3657ZM67.4253 88H66.4253V89H67.4253V88ZM67.4253 86.6321H68.4253V85.6321H67.4253V86.6321ZM67.3486 86.6321V85.6321H66.7445L66.4635 86.1668L67.3486 86.6321ZM66.6775 87.4759L66.0326 86.7115L66.0267 86.7166L66.6775 87.4759ZM65.7251 87.9936L65.4255 87.0395L65.4223 87.0405L65.7251 87.9936ZM66.3707 85.9162L65.9234 85.0217L65.9178 85.0246L66.3707 85.9162ZM67.0226 85.3537L67.8501 85.9152L67.8547 85.9084L67.0226 85.3537ZM67.2655 83.5767H68.2655V81.924L66.8015 82.6909L67.2655 83.5767ZM66.9395 83.7045L66.6522 82.7467L66.6431 82.7495L66.9395 83.7045ZM66.0702 83.9027L66.2303 84.8898V84.8898L66.0702 83.9027ZM65.6164 83.973L65.4709 82.9836L65.459 82.9855L65.6164 83.973ZM64.8621 84.1903L64.4372 83.2851L64.43 83.2885L64.8621 84.1903ZM64.3891 84.5739L63.5709 83.9989L63.5677 84.0035L64.3891 84.5739ZM64.5745 85.8651L63.9792 86.6686L63.9863 86.6738L64.5745 85.8651ZM64.4978 88.1662V87.1662C63.9825 87.1662 63.5646 87.0805 63.2243 86.9343L62.8295 87.853L62.4346 88.7717C63.0659 89.0431 63.7603 89.1662 64.4978 89.1662V88.1662ZM62.8295 87.853L63.2341 86.9385C62.922 86.8004 62.6922 86.6044 62.5199 86.3433L61.6853 86.8942L60.8507 87.445C61.2409 88.0363 61.7739 88.4794 62.4248 88.7675L62.8295 87.853ZM61.6853 86.8942L62.5262 86.353C62.3774 86.1219 62.2698 85.7835 62.2698 85.277H61.2698H60.2698C60.2698 86.066 60.4391 86.8057 60.8444 87.4354L61.6853 86.8942ZM61.2698 85.277H62.2698C62.2698 84.8447 62.3462 84.5503 62.4478 84.3516L61.5574 83.8963L60.6671 83.441C60.3852 83.9923 60.2698 84.6184 60.2698 85.277H61.2698ZM61.5574 83.8963L62.4478 84.3516C62.5669 84.1187 62.7232 83.941 62.9214 83.8029L62.3501 82.9822L61.7787 82.1616C61.3036 82.4923 60.9315 82.924 60.6671 83.441L61.5574 83.8963ZM62.3501 82.9822L62.9214 83.8029C63.1544 83.6407 63.4354 83.5092 63.7757 83.4167L63.5134 82.4517L63.2511 81.4867C62.7136 81.6328 62.219 81.855 61.7787 82.1616L62.3501 82.9822ZM63.5134 82.4517L63.7844 83.4143C64.157 83.3094 64.5631 83.2365 65.0048 83.1988L64.9197 82.2024L64.8345 81.206C64.2791 81.2535 63.7476 81.3469 63.2424 81.4891L63.5134 82.4517ZM64.9197 82.2024L65.0109 83.1982C65.5799 83.1461 66.0553 83.0904 66.4288 83.0297L66.2684 82.0426L66.108 81.0556C65.7996 81.1057 65.3758 81.1564 64.8284 81.2066L64.9197 82.2024ZM66.2684 82.0426L66.4408 83.0276C66.823 82.9607 67.2449 82.8476 67.5803 82.6147L67.0099 81.7933L66.4395 80.972C66.4641 80.9548 66.4574 80.9653 66.3907 80.9877C66.3275 81.009 66.2318 81.0338 66.096 81.0576L66.2684 82.0426ZM67.0099 81.7933L67.5848 82.6115C68.0211 82.3049 68.2464 81.8375 68.2464 81.3267H67.2464H66.2464C66.2464 81.2932 66.2538 81.2233 66.2953 81.1415C66.3375 81.0582 66.394 81.0039 66.4349 80.9751L67.0099 81.7933ZM67.2464 81.3267H68.2464V81.2947H67.2464H66.2464V81.3267H67.2464ZM67.2464 81.2947H68.2464C68.2464 80.7091 68.0291 80.1469 67.5287 79.7503L66.9076 80.5341L66.2865 81.3178C66.2842 81.316 66.2771 81.3099 66.2685 81.2989C66.2598 81.2878 66.2529 81.276 66.2482 81.2653C66.2382 81.2429 66.2464 81.2457 66.2464 81.2947H67.2464ZM66.9076 80.5341L67.5287 79.7503C67.0753 79.3911 66.5279 79.2656 65.9935 79.2656V80.2656V81.2656C66.109 81.2656 66.1837 81.2792 66.2279 81.2922C66.2695 81.3044 66.2841 81.316 66.2865 81.3178L66.9076 80.5341ZM65.9935 80.2656V79.2656C65.4418 79.2656 64.8862 79.385 64.4164 79.7194L64.9964 80.5341L65.5763 81.3488C65.6094 81.3252 65.7185 81.2656 65.9935 81.2656V80.2656ZM64.9964 80.5341L64.4164 79.7194C63.952 80.05 63.6578 80.5174 63.5395 81.0642L64.517 81.2756L65.4944 81.4869C65.5125 81.403 65.5378 81.3761 65.5763 81.3488L64.9964 80.5341ZM64.517 81.2756L64.5524 80.2762L61.6696 80.1739L61.6341 81.1733L61.5987 82.1727L64.4815 82.2749L64.517 81.2756ZM61.6341 81.1733L62.6241 81.3147C62.6861 80.8809 62.8417 80.5077 63.0908 80.1776L62.2925 79.5753L61.4943 78.973C61.036 79.5803 60.7527 80.2725 60.6442 81.0319L61.6341 81.1733ZM62.2925 79.5753L63.0899 80.1787C63.3295 79.8621 63.6725 79.5911 64.1589 79.3812L63.7627 78.4631L63.3665 77.5449C62.6086 77.872 61.9715 78.3424 61.4951 78.9718L62.2925 79.5753ZM63.7627 78.4631L64.1619 79.3799C64.632 79.1753 65.2411 79.054 66.0191 79.054V78.054V77.054C65.0414 77.054 64.1463 77.2054 63.3635 77.5462L63.7627 78.4631ZM66.0191 78.054V79.054C66.5663 79.054 67.0511 79.1191 67.4797 79.2401L67.7513 78.2777L68.023 77.3153C67.3948 77.138 66.7247 77.054 66.0191 77.054V78.054ZM67.7513 78.2777L67.4869 79.2421C67.9163 79.3598 68.2655 79.526 68.5491 79.7294L69.132 78.9169L69.7149 78.1044C69.2144 77.7453 68.6432 77.4853 68.0158 77.3133L67.7513 78.2777ZM69.132 78.9169L68.555 79.7336C68.8247 79.9242 69.0188 80.1471 69.1548 80.4054L70.0397 79.9396L70.9246 79.4739C70.6344 78.9225 70.2234 78.4636 69.709 78.1002L69.132 78.9169ZM70.0397 79.9396L69.1586 80.4126C69.2881 80.6538 69.3657 80.9499 69.3657 81.3267H70.3657H71.3657C71.3657 80.6637 71.2259 80.0351 70.9208 79.4666L70.0397 79.9396ZM70.3657 81.3267H69.3657V88H70.3657H71.3657V81.3267H70.3657ZM70.3657 88V87H67.4253V88V89H70.3657V88ZM67.4253 88H68.4253V86.6321H67.4253H66.4253V88H67.4253ZM67.4253 86.6321V85.6321H67.3486V86.6321V87.6321H67.4253V86.6321ZM67.3486 86.6321L66.4635 86.1668C66.3456 86.391 66.2016 86.569 66.0326 86.7116L66.6775 87.4759L67.3223 88.2401C67.6988 87.9225 68.0022 87.5379 68.2338 87.0974L67.3486 86.6321ZM66.6775 87.4759L66.0267 86.7166C65.8695 86.8513 65.6742 86.9615 65.4255 87.0395L65.7251 87.9936L66.0246 88.9477C66.5089 88.7956 66.9485 88.5606 67.3283 88.2351L66.6775 87.4759ZM65.7251 87.9936L65.4223 87.0405C65.1753 87.119 64.8709 87.1662 64.4978 87.1662V88.1662V89.1662C65.0366 89.1662 65.5504 89.0983 66.0278 88.9467L65.7251 87.9936ZM65.463 86.1207V87.1207C65.9382 87.1207 66.3989 87.0235 66.8235 86.8078L66.3707 85.9162L65.9178 85.0246C65.8055 85.0817 65.661 85.1207 65.463 85.1207V86.1207ZM66.3707 85.9162L66.8179 86.8106C67.2347 86.6022 67.5865 86.3037 67.8501 85.9152L67.0226 85.3537L66.1952 84.7922C66.1349 84.8809 66.0521 84.9574 65.9234 85.0218L66.3707 85.9162ZM67.0226 85.3537L67.8547 85.9084C68.1365 85.4857 68.2655 85.0075 68.2655 84.5099H67.2655H66.2655C66.2655 84.6516 66.2327 84.7359 66.1906 84.799L67.0226 85.3537ZM67.2655 84.5099H68.2655V83.5767H67.2655H66.2655V84.5099H67.2655ZM67.2655 83.5767L66.8015 82.6909C66.7831 82.7005 66.7372 82.7212 66.6522 82.7467L66.9395 83.7045L67.2269 84.6624C67.3976 84.6112 67.569 84.5467 67.7295 84.4625L67.2655 83.5767ZM66.9395 83.7045L66.6431 82.7495C66.5477 82.7791 66.4363 82.8089 66.3076 82.8384L66.5304 83.8132L66.7533 84.7881C66.9229 84.7493 67.0842 84.7067 67.2359 84.6596L66.9395 83.7045ZM66.5304 83.8132L66.3076 82.8384C66.1801 82.8675 66.0477 82.8933 65.9102 82.9156L66.0702 83.9027L66.2303 84.8898C66.4081 84.861 66.5825 84.8271 66.7533 84.7881L66.5304 83.8132ZM66.0702 83.9027L65.9102 82.9156C65.7569 82.9404 65.6105 82.9631 65.4709 82.9837L65.6164 83.973L65.7619 84.9624C65.912 84.9403 66.0682 84.9161 66.2303 84.8898L66.0702 83.9027ZM65.6164 83.973L65.459 82.9855C65.0977 83.0431 64.7514 83.1376 64.4372 83.2851L64.8621 84.1903L65.287 85.0956C65.3905 85.047 65.547 84.9967 65.7738 84.9605L65.6164 83.973ZM64.8621 84.1903L64.43 83.2885C64.0984 83.4474 63.7964 83.678 63.5709 83.9989L64.3891 84.5739L65.2073 85.1488C65.2073 85.1488 65.2075 85.1486 65.2078 85.1482C65.2081 85.1478 65.2087 85.1471 65.2095 85.1462C65.2112 85.1445 65.2145 85.1411 65.2203 85.1365C65.2317 85.1272 65.2544 85.1112 65.2943 85.0922L64.8621 84.1903ZM64.3891 84.5739L63.5677 84.0035C63.329 84.3472 63.2293 84.7363 63.2293 85.1236H64.2293H65.2293C65.2293 85.1007 65.2321 85.0965 65.2295 85.1055C65.2283 85.1098 65.2261 85.116 65.2226 85.1233C65.2191 85.1307 65.2149 85.1378 65.2105 85.1443L64.3891 84.5739ZM64.2293 85.1236H63.2293C63.2293 85.7167 63.4586 86.2829 63.9793 86.6686L64.5745 85.8651L65.1697 85.0615C65.1735 85.0643 65.183 85.0721 65.1943 85.0857C65.2057 85.0996 65.2153 85.1149 65.2222 85.1298C65.2367 85.1609 65.2293 85.1668 65.2293 85.1236H64.2293ZM64.5745 85.8651L63.9863 86.6738C64.4283 86.9953 64.9441 87.1207 65.463 87.1207V86.1207V85.1207C65.2659 85.1207 65.1894 85.0758 65.1627 85.0563L64.5745 85.8651ZM72.2769 88H71.2769V89H72.2769V88ZM72.2769 78.1818V77.1818H71.2769V78.1818H72.2769ZM75.4026 78.1818H76.4026V77.1818H75.4026V78.1818ZM75.4026 88V89H76.4026V88H75.4026ZM72.7116 76.603L72.0296 77.3344L72.0349 77.3393L72.7116 76.603ZM72.7116 74.4936L73.3882 75.23L73.3935 75.225L72.7116 74.4936ZM74.9743 74.4936L74.2874 75.2204L74.2977 75.2299L74.9743 74.4936ZM74.9743 76.603L75.6559 77.3347L75.6563 77.3344L74.9743 76.603ZM72.2769 88H73.2769V78.1818H72.2769H71.2769V88H72.2769ZM72.2769 78.1818V79.1818H75.4026V78.1818V77.1818H72.2769V78.1818ZM75.4026 78.1818H74.4026V88H75.4026H76.4026V78.1818H75.4026ZM75.4026 88V87H72.2769V88V89H75.4026V88ZM73.8429 77.0376V76.0376C73.6478 76.0376 73.514 75.9822 73.3882 75.8667L72.7116 76.603L72.0349 77.3393C72.5398 77.8033 73.1603 78.0376 73.8429 78.0376V77.0376ZM72.7116 76.603L73.3935 75.8716C73.2712 75.7575 73.2385 75.6647 73.2385 75.5419H72.2385H71.2385C71.2385 76.2458 71.5213 76.8604 72.0296 77.3344L72.7116 76.603ZM72.2385 75.5419H73.2385C73.2385 75.4272 73.268 75.3404 73.3882 75.2299L72.7116 74.4936L72.0349 73.7573C71.5244 74.2264 71.2385 74.8385 71.2385 75.5419H72.2385ZM72.7116 74.4936L73.3935 75.225C73.5201 75.107 73.6521 75.0526 73.8429 75.0526V74.0526V73.0526C73.156 73.0526 72.5337 73.2921 72.0296 73.7622L72.7116 74.4936ZM73.8429 74.0526V75.0526C74.0407 75.0526 74.1692 75.1085 74.2874 75.2203L74.9743 74.4936L75.6613 73.7669C75.1574 73.2906 74.5316 73.0526 73.8429 73.0526V74.0526ZM74.9743 74.4936L74.2977 75.2299C74.4179 75.3404 74.4474 75.4272 74.4474 75.5419H75.4474H76.4474C76.4474 74.8385 76.1615 74.2264 75.651 73.7573L74.9743 74.4936ZM75.4474 75.5419H74.4474C74.4474 75.6647 74.4147 75.7575 74.2924 75.8716L74.9743 76.603L75.6563 77.3344C76.1646 76.8604 76.4474 76.2458 76.4474 75.5419H75.4474ZM74.9743 76.603L74.2927 75.8713C74.1752 75.9807 74.045 76.0376 73.8429 76.0376V77.0376V78.0376C74.5272 78.0376 75.1513 77.8048 75.6559 77.3347L74.9743 76.603ZM80.5178 74.9091H81.5178V73.9091H80.5178V74.9091ZM80.5178 88V89H81.5178V88H80.5178ZM77.3921 88H76.3921V89H77.3921V88ZM77.3921 74.9091V73.9091H76.3921V74.9091H77.3921ZM80.5178 74.9091H79.5178V88H80.5178H81.5178V74.9091H80.5178ZM80.5178 88V87H77.3921V88V89H80.5178V88ZM77.3921 88H78.3921V74.9091H77.3921H76.3921V88H77.3921ZM77.3921 74.9091V75.9091H80.5178V74.9091V73.9091H77.3921V74.9091ZM83.3575 91.5923L83.5342 90.608L83.5219 90.6059L83.3575 91.5923ZM82.501 91.3686L81.5443 91.0776L81.2753 91.9615L82.1353 92.2994L82.501 91.3686ZM83.1913 89.0994L83.5075 88.1507L82.5335 87.8261L82.2346 88.8084L83.1913 89.0994ZM84.0223 89.2784L83.9535 90.276L83.9546 90.2761L84.0223 89.2784ZM84.6679 89.157L84.2124 88.2667L84.1999 88.2731L84.1876 88.2799L84.6679 89.157ZM85.0898 88.652L84.1655 88.2702L84.1624 88.2778L85.0898 88.652ZM85.2112 88.358L86.1355 88.7397L86.2796 88.3907L86.1571 88.0335L85.2112 88.358ZM81.7211 78.1818V77.1818H80.321L80.7752 78.5062L81.7211 78.1818ZM84.9939 78.1818L85.9621 77.9318L85.7685 77.1818H84.9939V78.1818ZM86.8028 85.1875L85.8346 85.4375L86.0282 86.1875H86.8028V85.1875ZM86.9051 85.1875V86.1875H87.677L87.8725 85.4408L86.9051 85.1875ZM88.7396 78.1818V77.1818H87.9678L87.7722 77.9285L88.7396 78.1818ZM92.0315 78.1818L92.9771 78.5071L93.4331 77.1818H92.0315V78.1818ZM88.3305 88.9396L87.3849 88.6143L87.3818 88.6234L88.3305 88.9396ZM87.5699 90.3587L86.7897 89.7329L86.7827 89.7419L87.5699 90.3587ZM86.3106 91.3303L85.8968 90.4199L85.894 90.4212L86.3106 91.3303ZM84.4186 91.6818V90.6818C84.0964 90.6818 83.8023 90.6562 83.5342 90.6081L83.3575 91.5923L83.1808 92.5766C83.5775 92.6478 83.9908 92.6818 84.4186 92.6818V91.6818ZM83.3575 91.5923L83.5219 90.6059C83.2382 90.5587 83.0237 90.4996 82.8666 90.4379L82.501 91.3686L82.1353 92.2994C82.4555 92.4251 82.812 92.5152 83.1931 92.5787L83.3575 91.5923ZM82.501 91.3686L83.4577 91.6597L84.148 89.3905L83.1913 89.0994L82.2346 88.8084L81.5443 91.0776L82.501 91.3686ZM83.1913 89.0994L82.8751 90.0481C83.2391 90.1694 83.601 90.2517 83.9535 90.276L84.0223 89.2784L84.0911 88.2808C83.9492 88.271 83.7572 88.234 83.5075 88.1507L83.1913 89.0994ZM84.0223 89.2784L83.9546 90.2761C84.3517 90.303 84.7664 90.2432 85.1482 90.0341L84.6679 89.157L84.1876 88.2799C84.1969 88.2748 84.1991 88.2759 84.1874 88.2781C84.1744 88.2805 84.1436 88.2843 84.0899 88.2807L84.0223 89.2784ZM84.6679 89.157L85.1234 90.0472C85.5741 89.8166 85.8543 89.4297 86.0171 89.0262L85.0898 88.652L84.1624 88.2778C84.1451 88.3207 84.1352 88.329 84.1434 88.3193C84.1476 88.3142 84.1557 88.3054 84.1683 88.2953C84.1809 88.2851 84.1959 88.2752 84.2124 88.2667L84.6679 89.157ZM85.0898 88.652L86.014 89.0337L86.1355 88.7397L85.2112 88.358L84.2869 87.9762L84.1655 88.2702L85.0898 88.652ZM85.2112 88.358L86.1571 88.0335L82.6671 77.8574L81.7211 78.1818L80.7752 78.5062L84.2653 88.6824L85.2112 88.358ZM81.7211 78.1818V79.1818H84.9939V78.1818V77.1818H81.7211V78.1818ZM84.9939 78.1818L84.0256 78.4318L85.8346 85.4375L86.8028 85.1875L87.7711 84.9375L85.9621 77.9318L84.9939 78.1818ZM86.8028 85.1875V86.1875H86.9051V85.1875V84.1875H86.8028V85.1875ZM86.9051 85.1875L87.8725 85.4408L89.707 78.4351L88.7396 78.1818L87.7722 77.9285L85.9377 84.9342L86.9051 85.1875ZM88.7396 78.1818V79.1818H92.0315V78.1818V77.1818H88.7396V78.1818ZM92.0315 78.1818L91.0859 77.8565L87.3849 88.6143L88.3305 88.9396L89.2761 89.2649L92.9771 78.5071L92.0315 78.1818ZM88.3305 88.9396L87.3818 88.6234C87.2373 89.0569 87.0382 89.4233 86.7898 89.733L87.5699 90.3587L88.3499 90.9844C88.7578 90.4758 89.0658 89.8962 89.2792 89.2559L88.3305 88.9396ZM87.5699 90.3587L86.7827 89.7419C86.5656 90.019 86.278 90.2466 85.8968 90.4199L86.3106 91.3303L86.7244 92.2406C87.3745 91.9451 87.9264 91.525 88.357 90.9754L87.5699 90.3587ZM86.3106 91.3303L85.894 90.4212C85.5492 90.5792 85.0703 90.6818 84.4186 90.6818V91.6818V92.6818C85.2668 92.6818 86.0493 92.5501 86.7273 92.2393L86.3106 91.3303ZM97.0972 88H96.0972V89H97.0972V88ZM97.0972 74.9091V73.9091H96.0972V74.9091H97.0972ZM105.017 75.3246L104.63 76.2468L104.632 76.2477L105.017 75.3246ZM106.513 76.4879L105.681 77.0426L105.684 77.0475L106.513 76.4879ZM106.704 79.5561L107.585 80.0302L107.587 80.0262L106.704 79.5561ZM105.842 80.5213L105.269 79.7012V79.7012L105.842 80.5213ZM104.57 81.0582L104.362 80.0801L103.57 80.2483V81.0582H104.57ZM104.57 81.1861H103.57V82.1389L104.521 82.1849L104.57 81.1861ZM106.033 81.6143L105.531 82.479L105.535 82.4811L106.033 81.6143ZM107.12 82.701L106.258 83.2073L106.26 83.2108L107.12 82.701ZM106.992 86.223L107.83 86.7687L107.832 86.7657L106.992 86.223ZM105.439 87.527L105.861 88.4336L105.865 88.4314L105.439 87.527ZM100.261 85.4496H99.2613V86.4496H100.261V85.4496ZM103.732 85.0597L103.111 84.2758L103.106 84.2798L103.732 85.0597ZM103.988 83.1037L103.145 83.6415L103.149 83.6482L103.988 83.1037ZM103.317 82.5348L102.891 83.4397L102.902 83.4447L103.317 82.5348ZM100.261 82.3303V81.3303H99.2613V82.3303H100.261ZM100.261 80.2912H99.2613V81.2912H100.261V80.2912ZM103.56 79.62L102.743 79.0433L102.735 79.0542L103.56 79.62ZM103.323 77.7983L103.952 77.0206V77.0206L103.323 77.7983ZM100.261 77.4212V76.4212H99.2613V77.4212H100.261ZM97.0972 88H98.0972V74.9091H97.0972H96.0972V88H97.0972ZM97.0972 74.9091V75.9091H102.556V74.9091V73.9091H97.0972V74.9091ZM102.556 74.9091V75.9091C103.449 75.9091 104.128 76.0363 104.63 76.2468L105.017 75.3246L105.404 74.4024C104.585 74.0589 103.623 73.9091 102.556 73.9091V74.9091ZM105.017 75.3246L104.632 76.2477C105.152 76.4643 105.478 76.739 105.681 77.0426L106.513 76.4879L107.345 75.9332C106.882 75.2397 106.211 74.7389 105.402 74.4015L105.017 75.3246ZM106.513 76.4879L105.684 77.0475C105.899 77.3658 106.018 77.7444 106.018 78.2202H107.018H108.018C108.018 77.3834 107.8 76.6072 107.341 75.9283L106.513 76.4879ZM107.018 78.2202H106.018C106.018 78.5752 105.945 78.8556 105.822 79.086L106.704 79.5561L107.587 80.0262C107.882 79.4725 108.018 78.8623 108.018 78.2202H107.018ZM106.704 79.5561L105.824 79.082C105.691 79.3298 105.509 79.5337 105.269 79.7012L105.842 80.5213L106.414 81.3414C106.907 80.9975 107.301 80.558 107.585 80.0302L106.704 79.5561ZM105.842 80.5213L105.269 79.7012C105.023 79.8729 104.726 80.0027 104.362 80.0801L104.57 81.0582L104.777 82.0364C105.376 81.9092 105.927 81.6811 106.414 81.3414L105.842 80.5213ZM104.57 81.0582H103.57V81.1861H104.57H105.57V81.0582H104.57ZM104.57 81.1861L104.521 82.1849C104.893 82.2029 105.225 82.3013 105.531 82.479L106.033 81.6143L106.536 80.7497C105.947 80.4075 105.302 80.2204 104.618 80.1872L104.57 81.1861ZM106.033 81.6143L105.535 82.4811C105.831 82.6515 106.07 82.8872 106.258 83.2073L107.12 82.701L107.982 82.1947C107.625 81.5858 107.139 81.0971 106.532 80.7476L106.033 81.6143ZM107.12 82.701L106.26 83.2108C106.426 83.491 106.529 83.8537 106.529 84.3374H107.529H108.529C108.529 83.5597 108.36 82.8314 107.98 82.1912L107.12 82.701ZM107.529 84.3374H106.529C106.529 84.8613 106.399 85.2989 106.152 85.6803L106.992 86.223L107.832 86.7657C108.301 86.0392 108.529 85.2197 108.529 84.3374H107.529ZM106.992 86.223L106.154 85.6773C105.911 86.0505 105.546 86.3706 105.012 86.6226L105.439 87.527L105.865 88.4314C106.686 88.0442 107.357 87.4949 107.83 86.7687L106.992 86.223ZM105.439 87.527L105.017 86.6204C104.504 86.8589 103.834 87 102.972 87V88V89C104.043 89 105.018 88.8258 105.861 88.4336L105.439 87.527ZM102.972 88V87H97.0972V88V89H102.972V88ZM100.261 85.4496V86.4496H102.217V85.4496V84.4496H100.261V85.4496ZM102.217 85.4496V86.4496C102.994 86.4496 103.773 86.3088 104.358 85.8395L103.732 85.0597L103.106 84.2798C103.043 84.3304 102.812 84.4496 102.217 84.4496V85.4496ZM103.732 85.0597L104.353 85.8435C104.949 85.3714 105.224 84.7048 105.224 83.973H104.224H103.224C103.224 84.1702 103.171 84.228 103.111 84.2758L103.732 85.0597ZM104.224 83.973H105.224C105.224 83.4752 105.106 82.9892 104.827 82.5592L103.988 83.1037L103.149 83.6482C103.185 83.704 103.224 83.7975 103.224 83.973H104.224ZM103.988 83.1037L104.831 82.5659C104.56 82.1419 104.181 81.8299 103.731 81.6249L103.317 82.5348L102.902 83.4447C103.032 83.5039 103.1 83.5712 103.145 83.6415L103.988 83.1037ZM103.317 82.5348L103.742 81.63C103.289 81.4167 102.789 81.3303 102.275 81.3303V82.3303V83.3303C102.57 83.3303 102.765 83.3802 102.891 83.4396L103.317 82.5348ZM102.275 82.3303V81.3303H100.261V82.3303V83.3303H102.275V82.3303ZM100.261 82.3303H99.2613V85.4496H100.261H101.261V82.3303H100.261ZM100.261 80.2912V81.2912H102.013V80.2912V79.2912H100.261V80.2912ZM102.013 80.2912V81.2912C102.469 81.2912 102.914 81.2149 103.327 81.0378L102.933 80.1186L102.539 79.1995C102.416 79.2524 102.247 79.2912 102.013 79.2912V80.2912ZM102.933 80.1186L103.327 81.0378C103.75 80.8564 104.116 80.576 104.384 80.1859L103.56 79.62L102.735 79.0542C102.704 79.0988 102.653 79.1507 102.539 79.1995L102.933 80.1186ZM103.56 79.62L104.377 80.1967C104.667 79.7858 104.79 79.3144 104.79 78.8338H103.79H102.79C102.79 78.9668 102.759 79.0196 102.743 79.0433L103.56 79.62ZM103.79 78.8338H104.79C104.79 78.1264 104.523 77.4819 103.952 77.0206L103.323 77.7983L102.694 78.576C102.746 78.6175 102.79 78.6634 102.79 78.8338H103.79ZM103.323 77.7983L103.952 77.0206C103.413 76.5849 102.747 76.4212 102.064 76.4212V77.4212V78.4212C102.437 78.4212 102.611 78.5089 102.694 78.576L103.323 77.7983ZM102.064 77.4212V76.4212H100.261V77.4212V78.4212H102.064V77.4212ZM100.261 77.4212H99.2613V80.2912H100.261H101.261V77.4212H100.261ZM110.974 87.5526L110.474 88.4183L110.48 88.4217L110.974 87.5526ZM109.268 85.7756L108.38 86.2366L108.383 86.2425L109.268 85.7756ZM109.268 80.4702L108.382 80.0052L108.381 80.0071L109.268 80.4702ZM110.974 78.6932L111.471 79.5611L111.473 79.5602L110.974 78.6932ZM116.286 78.6932L115.786 79.559L115.792 79.5623L116.286 78.6932ZM117.993 80.4702L117.105 80.9312L117.109 80.9371L117.993 80.4702ZM117.993 85.7756L117.107 85.3106L117.106 85.3125L117.993 85.7756ZM116.286 87.5526L116.783 88.4205L116.784 88.4196L116.286 87.5526ZM114.605 85.4815L113.942 84.7328V84.7328L114.605 85.4815ZM115.199 84.5227L114.254 84.1976L114.251 84.2065L115.199 84.5227ZM115.199 81.6719L114.251 81.9881L114.254 81.997L115.199 81.6719ZM114.605 80.7131L115.268 79.9643L115.268 79.9643L114.605 80.7131ZM112.668 80.7131L112.017 79.9538L112.011 79.959L112.668 80.7131ZM112.061 81.6719L111.115 81.3468L111.112 81.3556L112.061 81.6719ZM112.061 84.5227L111.112 84.839L111.115 84.8478L112.061 84.5227ZM112.668 85.4815L112.011 86.2356L112.017 86.2408L112.668 85.4815ZM113.633 88.1854V87.1854C112.739 87.1854 112.031 87.0033 111.469 86.6834L110.974 87.5526L110.48 88.4217C111.401 88.9456 112.465 89.1854 113.633 89.1854V88.1854ZM110.974 87.5526L111.475 86.6868C110.902 86.3556 110.465 85.902 110.152 85.3086L109.268 85.7756L108.383 86.2425C108.871 87.1662 109.573 87.8973 110.474 88.4183L110.974 87.5526ZM109.268 85.7756L110.155 85.3145C109.844 84.7165 109.673 83.9953 109.673 83.1229H108.673H107.673C107.673 84.2618 107.898 85.309 108.38 86.2366L109.268 85.7756ZM108.673 83.1229H109.673C109.673 82.2452 109.845 81.5252 110.154 80.9332L109.268 80.4702L108.381 80.0071C107.898 80.9322 107.673 81.9806 107.673 83.1229H108.673ZM109.268 80.4702L110.153 80.9351C110.466 80.3384 110.902 79.887 111.471 79.5611L110.974 78.6932L110.478 77.8252C109.573 78.3431 108.87 79.0764 108.382 80.0052L109.268 80.4702ZM110.974 78.6932L111.473 79.5602C112.034 79.2375 112.741 79.054 113.633 79.054V78.054V77.054C112.463 77.054 111.398 77.2966 110.476 77.8262L110.974 78.6932ZM113.633 78.054V79.054C114.526 79.054 115.23 79.2376 115.786 79.559L116.286 78.6932L116.787 77.8274C115.868 77.2965 114.803 77.054 113.633 77.054V78.054ZM116.286 78.6932L115.792 79.5623C116.364 79.8881 116.797 80.3381 117.105 80.9312L117.993 80.4702L118.88 80.0091C118.396 79.0767 117.691 78.342 116.781 77.824L116.286 78.6932ZM117.993 80.4702L117.109 80.9371C117.421 81.5282 117.594 82.2468 117.594 83.1229H118.594H119.594C119.594 81.979 119.366 80.9292 118.877 80.0032L117.993 80.4702ZM118.594 83.1229H117.594C117.594 83.9937 117.421 84.7135 117.107 85.3106L117.993 85.7756L118.878 86.2405C119.366 85.3121 119.594 84.2634 119.594 83.1229H118.594ZM117.993 85.7756L117.106 85.3125C116.798 85.9023 116.364 86.3544 115.788 86.6855L116.286 87.5526L116.784 88.4196C117.691 87.8984 118.395 87.1659 118.879 86.2386L117.993 85.7756ZM116.286 87.5526L115.789 86.6846C115.233 87.0032 114.528 87.1854 113.633 87.1854V88.1854V89.1854C114.802 89.1854 115.865 88.9457 116.783 88.4205L116.286 87.5526ZM113.653 85.8267V86.8267C114.251 86.8267 114.81 86.6358 115.268 86.2303L114.605 85.4815L113.942 84.7328C113.88 84.7875 113.805 84.8267 113.653 84.8267V85.8267ZM114.605 85.4815L115.268 86.2303C115.688 85.8586 115.97 85.3749 116.148 84.839L115.199 84.5227L114.251 84.2065C114.157 84.4888 114.042 84.6443 113.942 84.7328L114.605 85.4815ZM115.199 84.5227L116.145 84.8478C116.329 84.3124 116.41 83.7256 116.41 83.1037H115.41H114.41C114.41 83.5556 114.351 83.9149 114.254 84.1976L115.199 84.5227ZM115.41 83.1037H116.41C116.41 82.4752 116.33 81.8837 116.145 81.3468L115.199 81.6719L114.254 81.997C114.35 82.2782 114.41 82.6413 114.41 83.1037H115.41ZM115.199 81.6719L116.148 81.3556C115.97 80.8197 115.688 80.336 115.268 79.9643L114.605 80.7131L113.942 81.4618C114.042 81.5503 114.157 81.7058 114.251 81.9881L115.199 81.6719ZM114.605 80.7131L115.268 79.9643C114.81 79.5588 114.251 79.3679 113.653 79.3679V80.3679V81.3679C113.805 81.3679 113.88 81.4071 113.942 81.4618L114.605 80.7131ZM113.653 80.3679V79.3679C113.051 79.3679 112.485 79.5529 112.017 79.9538L112.668 80.7131L113.319 81.4723C113.388 81.413 113.479 81.3679 113.653 81.3679V80.3679ZM112.668 80.7131L112.011 79.959C111.587 80.3284 111.3 80.8105 111.115 81.3468L112.061 81.6719L113.007 81.997C113.104 81.7151 113.221 81.5579 113.325 81.4671L112.668 80.7131ZM112.061 81.6719L111.112 81.3556C110.934 81.8896 110.856 82.4779 110.856 83.1037H111.856H112.856C112.856 82.6386 112.915 82.2723 113.01 81.9881L112.061 81.6719ZM111.856 83.1037H110.856C110.856 83.7229 110.935 84.3064 111.112 84.839L112.061 84.5227L113.01 84.2065C112.914 83.9208 112.856 83.5584 112.856 83.1037H111.856ZM112.061 84.5227L111.115 84.8478C111.3 85.3842 111.587 85.8662 112.011 86.2356L112.668 85.4815L113.325 84.7275C113.221 84.6367 113.104 84.4795 113.007 84.1976L112.061 84.5227ZM112.668 85.4815L112.017 86.2408C112.485 86.6417 113.051 86.8267 113.653 86.8267V85.8267V84.8267C113.479 84.8267 113.388 84.7816 113.319 84.7223L112.668 85.4815ZM123.321 82.4006L122.321 82.3892V82.4006H123.321ZM123.321 88V89H124.321V88H123.321ZM120.195 88H119.195V89H120.195V88ZM120.195 78.1818V77.1818H119.195V78.1818H120.195ZM123.167 78.1818H124.167V77.1818H123.167V78.1818ZM123.167 79.9844H122.167V80.9844H123.167V79.9844ZM123.276 79.9844V80.9844H123.978L124.216 80.3245L123.276 79.9844ZM124.388 78.5717L124.933 79.41L124.938 79.4069L124.388 78.5717ZM128.057 78.5206L127.534 79.373L127.543 79.3781L128.057 78.5206ZM129.246 79.8118L128.354 80.2645L128.359 80.2727L129.246 79.8118ZM129.668 81.7422L128.668 81.7364V81.7422H129.668ZM129.668 88V89H130.668V88H129.668ZM126.542 88H125.542V89H126.542V88ZM126.542 82.3558L125.542 82.348V82.3558H126.542ZM126.127 81.0774L125.384 81.7475L125.39 81.7531L126.127 81.0774ZM124.1 80.8345L124.595 81.7037L124.6 81.7009L124.1 80.8345ZM123.525 81.4418L122.636 80.9831L122.631 80.9945L123.525 81.4418ZM123.321 82.4006H122.321V88H123.321H124.321V82.4006H123.321ZM123.321 88V87H120.195V88V89H123.321V88ZM120.195 88H121.195V78.1818H120.195H119.195V88H120.195ZM120.195 78.1818V79.1818H123.167V78.1818V77.1818H120.195V78.1818ZM123.167 78.1818H122.167V79.9844H123.167H124.167V78.1818H123.167ZM123.167 79.9844V80.9844H123.276V79.9844V78.9844H123.167V79.9844ZM123.276 79.9844L124.216 80.3245C124.361 79.9234 124.596 79.6295 124.933 79.41L124.388 78.5717L123.843 77.7334C123.132 78.1958 122.625 78.8436 122.335 79.6442L123.276 79.9844ZM124.388 78.5717L124.938 79.4069C125.275 79.1851 125.701 79.054 126.261 79.054V78.054V77.054C125.372 77.054 124.55 77.268 123.838 77.7366L124.388 78.5717ZM126.261 78.054V79.054C126.797 79.054 127.208 79.173 127.534 79.373L128.057 78.5206L128.58 77.6682C127.892 77.246 127.106 77.054 126.261 77.054V78.054ZM128.057 78.5206L127.543 79.3781C127.886 79.584 128.154 79.8709 128.354 80.2645L129.246 79.8118L130.138 79.3591C129.775 78.6448 129.251 78.0709 128.572 77.6631L128.057 78.5206ZM129.246 79.8118L128.359 80.2727C128.556 80.6533 128.671 81.1308 128.668 81.7364L129.668 81.7422L130.668 81.748C130.673 80.8791 130.507 80.0697 130.133 79.3509L129.246 79.8118ZM129.668 81.7422H128.668V88H129.668H130.668V81.7422H129.668ZM129.668 88V87H126.542V88V89H129.668V88ZM126.542 88H127.542V82.3558H126.542H125.542V88H126.542ZM126.542 82.3558L127.542 82.3636C127.548 81.646 127.364 80.947 126.864 80.4017L126.127 81.0774L125.39 81.7531C125.452 81.8215 125.545 81.9747 125.542 82.348L126.542 82.3558ZM126.127 81.0774L126.869 80.4073C126.365 79.8495 125.687 79.6172 124.97 79.6172V80.6172V81.6172C125.241 81.6172 125.334 81.6917 125.384 81.7475L126.127 81.0774ZM124.97 80.6172V79.6172C124.49 79.6172 124.023 79.7247 123.601 79.9681L124.1 80.8345L124.6 81.7009C124.68 81.6545 124.794 81.6172 124.97 81.6172V80.6172ZM124.1 80.8345L123.606 79.9654C123.182 80.2063 122.857 80.5551 122.637 80.9831L123.525 81.4418L124.414 81.9004C124.466 81.8001 124.524 81.744 124.595 81.7037L124.1 80.8345ZM123.525 81.4418L122.631 80.9945C122.415 81.4256 122.326 81.9024 122.321 82.3892L123.321 82.4006L124.321 82.4119C124.324 82.1487 124.371 81.9863 124.42 81.889L123.525 81.4418ZM137.938 78.1818V77.1818H136.938V78.1818H137.938ZM141.057 78.1818H142.057V77.1818H141.057V78.1818ZM141.057 88V89H142.057V88H141.057ZM138.078 88H137.078V89H138.078V88ZM138.078 86.1719H139.078V85.1719H138.078V86.1719ZM137.976 86.1719V85.1719H137.274L137.036 85.8317L137.976 86.1719ZM136.864 87.6037L137.422 88.4336L137.423 88.4326L136.864 87.6037ZM133.214 87.6676L132.696 88.5232V88.5232L133.214 87.6676ZM132.031 86.3828L131.14 86.8355L131.141 86.8383L132.031 86.3828ZM131.603 84.4396H130.603L130.603 84.4454L131.603 84.4396ZM131.603 78.1818V77.1818H130.603V78.1818H131.603ZM134.729 78.1818H135.729V77.1818H134.729V78.1818ZM134.729 83.826H133.729L133.729 83.834L134.729 83.826ZM135.151 85.0852L135.893 84.4151V84.4151L135.151 85.0852ZM137.119 85.3409L137.602 86.2165L137.608 86.2137L137.119 85.3409ZM137.714 84.7337L136.84 84.248L136.837 84.2528L137.714 84.7337ZM137.938 83.7621H138.938V78.1818H137.938H136.938V83.7621H137.938ZM137.938 78.1818V79.1818H141.057V78.1818V77.1818H137.938V78.1818ZM141.057 78.1818H140.057V88H141.057H142.057V78.1818H141.057ZM141.057 88V87H138.078V88V89H141.057V88ZM138.078 88H139.078V86.1719H138.078H137.078V88H138.078ZM138.078 86.1719V85.1719H137.976V86.1719V87.1719H138.078V86.1719ZM137.976 86.1719L137.036 85.8317C136.889 86.2357 136.651 86.5409 136.304 86.7748L136.864 87.6037L137.423 88.4326C138.125 87.9591 138.628 87.3098 138.916 86.512L137.976 86.1719ZM136.864 87.6037L136.306 86.7737C135.978 86.9939 135.552 87.1278 134.978 87.1278V88.1278V89.1278C135.878 89.1278 136.709 88.9124 137.422 88.4336L136.864 87.6037ZM134.978 88.1278V87.1278C134.467 87.1278 134.063 87.0126 133.732 86.812L133.214 87.6676L132.696 88.5232C133.379 88.9362 134.151 89.1278 134.978 89.1278V88.1278ZM133.214 87.6676L133.732 86.812C133.39 86.6055 133.122 86.3189 132.922 85.9273L132.031 86.3828L131.141 86.8383C131.503 87.5461 132.023 88.1161 132.696 88.5232L133.214 87.6676ZM132.031 86.3828L132.923 85.9301C132.724 85.539 132.607 85.0498 132.603 84.4339L131.603 84.4396L130.603 84.4454C130.608 85.3124 130.776 86.1187 131.14 86.8355L132.031 86.3828ZM131.603 84.4396H132.603V78.1818H131.603H130.603V84.4396H131.603ZM131.603 78.1818V79.1818H134.729V78.1818V77.1818H131.603V78.1818ZM134.729 78.1818H133.729V83.826H134.729H135.729V78.1818H134.729ZM134.729 83.826L133.729 83.834C133.734 84.5389 133.924 85.2193 134.408 85.7553L135.151 85.0852L135.893 84.4151C135.823 84.3375 135.732 84.1785 135.729 83.818L134.729 83.826ZM135.151 85.0852L134.408 85.7553C134.905 86.3055 135.57 86.5455 136.282 86.5455V85.5455V84.5455C136.04 84.5455 135.95 84.4786 135.893 84.4151L135.151 85.0852ZM136.282 85.5455V86.5455C136.744 86.5455 137.193 86.4426 137.602 86.2165L137.119 85.3409L136.636 84.4653C136.552 84.512 136.442 84.5455 136.282 84.5455V85.5455ZM137.119 85.3409L137.608 86.2137C138.03 85.9771 138.36 85.6353 138.591 85.2145L137.714 84.7337L136.837 84.2528C136.778 84.3605 136.711 84.4234 136.631 84.4682L137.119 85.3409ZM137.714 84.7337L138.588 85.2193C138.837 84.7712 138.938 84.2718 138.938 83.7621H137.938H136.938C136.938 84.0109 136.889 84.1592 136.84 84.248L137.714 84.7337ZM151.618 81.1797L151.645 82.1793L152.703 82.1511L152.615 81.0966L151.618 81.1797ZM148.748 81.2564L147.759 81.4007L147.887 82.2798L148.775 82.256L148.748 81.2564ZM148.505 80.7131L147.73 81.3452L147.739 81.3553L148.505 80.7131ZM147.987 80.3359L147.578 81.2482L147.589 81.2532L147.6 81.2579L147.987 80.3359ZM146.332 80.4126L145.839 79.5426L145.833 79.5462L146.332 80.4126ZM145.961 81.0007L146.961 81.0229L146.961 81.0032L146.961 80.9835L145.961 81.0007ZM146.191 81.4993L145.526 82.2456L145.536 82.2543L146.191 81.4993ZM147.054 81.8381L146.852 82.8175L146.86 82.8191L146.868 82.8206L147.054 81.8381ZM148.946 82.196L149.134 81.2138L149.132 81.2135L148.946 82.196ZM151.132 83.1293L150.459 83.8686L150.462 83.8716L151.132 83.1293ZM151.861 84.8551L152.861 84.8614L152.861 84.8492L151.861 84.8551ZM151.26 86.6129L150.477 85.9907L150.474 85.9948L151.26 86.6129ZM149.649 87.7763L150.021 88.7048L150.026 88.7027L149.649 87.7763ZM143.992 87.3224L143.408 88.1342L143.413 88.1376L143.992 87.3224ZM142.612 84.9957L142.587 83.996L141.49 84.0233L141.619 85.1133L142.612 84.9957ZM145.699 84.919L146.681 84.7319L146.523 83.8983L145.674 83.9193L145.699 84.919ZM146.23 85.7372L146.779 84.9013V84.9013L146.23 85.7372ZM148.301 85.7947L147.79 84.9347V84.9347L148.301 85.7947ZM148.684 85.2003L149.684 85.2175L149.684 85.1993L149.684 85.1811L148.684 85.2003ZM148.39 84.6697L147.811 85.4847L147.817 85.489L147.823 85.4933L148.39 84.6697ZM147.489 84.3501L147.302 85.3325L147.305 85.333L147.489 84.3501ZM145.776 84.0241L145.963 83.0417L145.955 83.0403L145.776 84.0241ZM143.577 83.0334L142.867 83.7374L142.87 83.7405L143.577 83.0334ZM142.861 81.1797L143.861 81.1854L143.861 81.1732L142.861 81.1797ZM143.385 79.4986L144.181 80.1044L144.183 80.1009L143.385 79.4986ZM144.894 78.4247L144.539 77.4896V77.4896L144.894 78.4247ZM150.346 78.8913L149.758 79.6999L149.761 79.702L150.346 78.8913ZM151.618 81.1797L151.591 80.18L148.721 80.2567L148.748 81.2564L148.775 82.256L151.645 82.1793L151.618 81.1797ZM148.748 81.2564L149.738 81.1121C149.681 80.7251 149.524 80.3713 149.272 80.0708L148.505 80.7131L147.739 81.3553C147.751 81.3701 147.755 81.3786 147.759 81.4007L148.748 81.2564ZM148.505 80.7131L149.28 80.0809C149.034 79.7791 148.723 79.56 148.375 79.414L147.987 80.3359L147.6 81.2579C147.679 81.2908 147.712 81.3232 147.73 81.3452L148.505 80.7131ZM147.987 80.3359L148.397 79.4237C148.035 79.2613 147.648 79.1953 147.259 79.1953V80.1953V81.1953C147.424 81.1953 147.522 81.2231 147.578 81.2482L147.987 80.3359ZM147.259 80.1953V79.1953C146.764 79.1953 146.276 79.2948 145.839 79.5426L146.332 80.4126L146.825 81.2827C146.899 81.2407 147.03 81.1953 147.259 81.1953V80.1953ZM146.332 80.4126L145.833 79.5462C145.332 79.8349 144.95 80.3372 144.961 81.0179L145.961 81.0007L146.961 80.9835C146.962 81.0409 146.946 81.1239 146.897 81.2016C146.853 81.2716 146.812 81.2904 146.831 81.2791L146.332 80.4126ZM145.961 81.0007L144.961 80.9785C144.95 81.4949 145.175 81.9324 145.526 82.2456L146.191 81.4993L146.857 80.753C146.865 80.76 146.896 80.7909 146.923 80.8501C146.952 80.9119 146.962 80.9741 146.961 81.0229L145.961 81.0007ZM146.191 81.4993L145.536 82.2543C145.901 82.5717 146.404 82.7251 146.852 82.8175L147.054 81.8381L147.256 80.8587C147.087 80.8237 146.97 80.7883 146.894 80.7586C146.814 80.727 146.813 80.7148 146.847 80.7443L146.191 81.4993ZM147.054 81.8381L146.868 82.8206L148.76 83.1786L148.946 82.196L149.132 81.2135L147.24 80.8555L147.054 81.8381ZM148.946 82.196L148.758 83.1782C149.648 83.3485 150.173 83.6084 150.459 83.8686L151.132 83.1293L151.806 82.3899C151.137 81.7808 150.204 81.4186 149.134 81.2138L148.946 82.196ZM151.132 83.1293L150.462 83.8716C150.712 84.0973 150.858 84.3936 150.861 84.8611L151.861 84.8551L152.861 84.8492C152.855 83.8848 152.515 83.0305 151.802 82.3869L151.132 83.1293ZM151.861 84.8551L150.861 84.8488C150.858 85.312 150.726 85.6778 150.477 85.9907L151.26 86.6129L152.043 87.2352C152.587 86.5509 152.855 85.7448 152.861 84.8614L151.861 84.8551ZM151.26 86.6129L150.474 85.9948C150.206 86.3362 149.82 86.6277 149.273 86.8498L149.649 87.7763L150.026 88.7027C150.843 88.3709 151.531 87.8868 152.046 87.231L151.26 86.6129ZM149.649 87.7763L149.278 86.8478C148.735 87.065 148.085 87.1854 147.31 87.1854V88.1854V89.1854C148.291 89.1854 149.2 89.033 150.021 88.7048L149.649 87.7763ZM147.31 88.1854V87.1854C146.033 87.1854 145.155 86.922 144.572 86.5073L143.992 87.3224L143.413 88.1376C144.449 88.8735 145.783 89.1854 147.31 89.1854V88.1854ZM143.992 87.3224L144.577 86.5107C143.995 86.0923 143.686 85.5668 143.605 84.8781L142.612 84.9957L141.619 85.1133C141.767 86.3679 142.379 87.3934 143.408 88.1341L143.992 87.3224ZM142.612 84.9957L142.637 85.9954L145.724 85.9187L145.699 84.919L145.674 83.9193L142.587 83.996L142.612 84.9957ZM145.699 84.919L144.717 85.1061C144.832 85.7103 145.153 86.2262 145.681 86.5731L146.23 85.7372L146.779 84.9013C146.736 84.8732 146.703 84.8437 146.681 84.7319L145.699 84.919ZM146.23 85.7372L145.681 86.5731C146.171 86.8953 146.742 87.0185 147.323 87.0185V86.0185V85.0185C147.017 85.0185 146.859 84.9541 146.779 84.9013L146.23 85.7372ZM147.323 86.0185V87.0185C147.839 87.0185 148.358 86.9234 148.811 86.6548L148.301 85.7947L147.79 84.9347C147.74 84.9644 147.608 85.0185 147.323 85.0185V86.0185ZM148.301 85.7947L148.811 86.6548C149.297 86.3665 149.673 85.8798 149.684 85.2175L148.684 85.2003L147.684 85.183C147.685 85.1296 147.703 85.0575 147.745 84.9921C147.783 84.9337 147.814 84.9206 147.79 84.9347L148.301 85.7947ZM148.684 85.2003L149.684 85.1811C149.673 84.6186 149.399 84.1502 148.957 83.8462L148.39 84.6697L147.823 85.4933C147.811 85.485 147.769 85.4521 147.733 85.3862C147.695 85.3186 147.685 85.2558 147.684 85.2195L148.684 85.2003ZM148.39 84.6697L148.97 83.8548C148.602 83.593 148.132 83.4532 147.673 83.3673L147.489 84.3501L147.305 85.333C147.473 85.3645 147.598 85.3984 147.687 85.4301C147.778 85.4626 147.812 85.4853 147.811 85.4847L148.39 84.6697ZM147.489 84.3501L147.676 83.3678L145.963 83.0418L145.776 84.0241L145.589 85.0065L147.302 85.3325L147.489 84.3501ZM145.776 84.0241L145.955 83.0403C145.081 82.8815 144.569 82.611 144.284 82.3263L143.577 83.0334L142.87 83.7405C143.548 84.4188 144.502 84.8089 145.597 85.008L145.776 84.0241ZM143.577 83.0334L144.287 82.3294C144.012 82.0514 143.858 81.6979 143.861 81.1854L142.861 81.1797L141.861 81.174C141.855 82.1615 142.179 83.0438 142.867 83.7374L143.577 83.0334ZM142.861 81.1797L143.861 81.1732C143.858 80.7092 143.978 80.3713 144.181 80.1044L143.385 79.4986L142.59 78.8928C142.085 79.5548 141.856 80.3377 141.861 81.1862L142.861 81.1797ZM143.385 79.4986L144.183 80.1009C144.404 79.8089 144.739 79.5528 145.248 79.3598L144.894 78.4247L144.539 77.4896C143.744 77.791 143.074 78.2508 142.587 78.8963L143.385 79.4986ZM144.894 78.4247L145.248 79.3598C145.761 79.1654 146.405 79.054 147.201 79.054V78.054V77.054C146.225 77.054 145.331 77.1897 144.539 77.4896L144.894 78.4247ZM147.201 78.054V79.054C148.402 79.054 149.218 79.3071 149.758 79.6999L150.346 78.8913L150.935 78.0828C149.94 77.3591 148.66 77.054 147.201 77.054V78.054ZM150.346 78.8913L149.761 79.702C150.283 80.0792 150.564 80.5719 150.622 81.2627L151.618 81.1797L152.615 81.0966C152.51 79.8443 151.943 78.8114 150.932 78.0807L150.346 78.8913Z" fill="black" mask="url(#path-6-outside-2_85_42)"/>
</g>
<rect id="Rectangle 91" x="186" y="7" width="9" height="7" rx="3.5" fill="#FDFFC3"/>
</g>
<defs>
<filter id="filter0_dii_85_42" x="0" y="0" width="200" height="114" filterUnits="userSpaceOnUse" color-interpolation-filters="sRGB">
<feFlood flood-opacity="0" result="BackgroundImageFix"/>
<feColorMatrix in="SourceAlpha" type="matrix" values="0 0 0 0 0 0 0 0 0 0 0 0 0 0 0 0 0 0 127 0" result="hardAlpha"/>
<feOffset dy="4"/>
<feComposite in2="hardAlpha" operator="out"/>
<feColorMatrix type="matrix" values="0 0 0 0 0 0 0 0 0 0 0 0 0 0 0 0 0 0 0.25 0"/>
<feBlend mode="normal" in2="BackgroundImageFix" result="effect1_dropShadow_85_42"/>
<feBlend mode="normal" in="SourceGraphic" in2="effect1_dropShadow_85_42" result="shape"/>
<feColorMatrix in="SourceAlpha" type="matrix" values="0 0 0 0 0 0 0 0 0 0 0 0 0 0 0 0 0 0 127 0" result="hardAlpha"/>
<feOffset dy="-9"/>
<feComposite in2="hardAlpha" operator="arithmetic" k2="-1" k3="1"/>
<feColorMatrix type="matrix" values="0 0 0 0 0.713726 0 0 0 0 0.388235 0 0 0 0 0.00392157 0 0 0 1 0"/>
<feBlend mode="normal" in2="shape" result="effect2_innerShadow_85_42"/>
<feColorMatrix in="SourceAlpha" type="matrix" values="0 0 0 0 0 0 0 0 0 0 0 0 0 0 0 0 0 0 127 0" result="hardAlpha"/>
<feOffset dy="4"/>
<feGaussianBlur stdDeviation="2"/>
<feComposite in2="hardAlpha" operator="arithmetic" k2="-1" k3="1"/>
<feColorMatrix type="matrix" values="0 0 0 0 1 0 0 0 0 0.883333 0 0 0 0 0 0 0 0 0.62 0"/>
<feBlend mode="normal" in2="effect2_innerShadow_85_42" result="effect3_innerShadow_85_42"/>
</filter>
<filter id="filter1_d_85_42" x="2" y="7" width="196" height="57" filterUnits="userSpaceOnUse" color-interpolation-filters="sRGB">
<feFlood flood-opacity="0" result="BackgroundImageFix"/>
<feColorMatrix in="SourceAlpha" type="matrix" values="0 0 0 0 0 0 0 0 0 0 0 0 0 0 0 0 0 0 127 0" result="hardAlpha"/>
<feOffset dy="3"/>
<feGaussianBlur stdDeviation="1.5"/>
<feComposite in2="hardAlpha" operator="out"/>
<feColorMatrix type="matrix" values="0 0 0 0 0 0 0 0 0 0 0 0 0 0 0 0 0 0 0.08 0"/>
<feBlend mode="normal" in2="BackgroundImageFix" result="effect1_dropShadow_85_42"/>
<feBlend mode="normal" in="SourceGraphic" in2="effect1_dropShadow_85_42" result="shape"/>
</filter>
<filter id="filter2_dd_85_42" x="48.1058" y="17.9545" width="104.127" height="37.4574" filterUnits="userSpaceOnUse" color-interpolation-filters="sRGB">
<feFlood flood-opacity="0" result="BackgroundImageFix"/>
<feColorMatrix in="SourceAlpha" type="matrix" values="0 0 0 0 0 0 0 0 0 0 0 0 0 0 0 0 0 0 127 0" result="hardAlpha"/>
<feOffset dy="2"/>
<feComposite in2="hardAlpha" operator="out"/>
<feColorMatrix type="matrix" values="0 0 0 0 0 0 0 0 0 0 0 0 0 0 0 0 0 0 0.41 0"/>
<feBlend mode="normal" in2="BackgroundImageFix" result="effect1_dropShadow_85_42"/>
<feColorMatrix in="SourceAlpha" type="matrix" values="0 0 0 0 0 0 0 0 0 0 0 0 0 0 0 0 0 0 127 0" result="hardAlpha"/>
<feOffset dy="4"/>
<feGaussianBlur stdDeviation="2"/>
<feComposite in2="hardAlpha" operator="out"/>
<feColorMatrix type="matrix" values="0 0 0 0 0 0 0 0 0 0 0 0 0 0 0 0 0 0 0.25 0"/>
<feBlend mode="normal" in2="effect1_dropShadow_85_42" result="effect2_dropShadow_85_42"/>
<feBlend mode="normal" in="SourceGraphic" in2="effect2_dropShadow_85_42" result="shape"/>
</filter>
<filter id="filter3_dd_85_42" x="43.5816" y="73.0526" width="113.28" height="27.6293" filterUnits="userSpaceOnUse" color-interpolation-filters="sRGB">
<feFlood flood-opacity="0" result="BackgroundImageFix"/>
<feColorMatrix in="SourceAlpha" type="matrix" values="0 0 0 0 0 0 0 0 0 0 0 0 0 0 0 0 0 0 127 0" result="hardAlpha"/>
<feOffset dy="4"/>
<feGaussianBlur stdDeviation="2"/>
<feComposite in2="hardAlpha" operator="out"/>
<feColorMatrix type="matrix" values="0 0 0 0 0 0 0 0 0 0 0 0 0 0 0 0 0 0 0.25 0"/>
<feBlend mode="normal" in2="BackgroundImageFix" result="effect1_dropShadow_85_42"/>
<feColorMatrix in="SourceAlpha" type="matrix" values="0 0 0 0 0 0 0 0 0 0 0 0 0 0 0 0 0 0 127 0" result="hardAlpha"/>
<feOffset dy="1"/>
<feComposite in2="hardAlpha" operator="out"/>
<feColorMatrix type="matrix" values="0 0 0 0 0 0 0 0 0 0 0 0 0 0 0 0 0 0 0.31 0"/>
<feBlend mode="normal" in2="effect1_dropShadow_85_42" result="effect2_dropShadow_85_42"/>
<feBlend mode="normal" in="SourceGraphic" in2="effect2_dropShadow_85_42" result="shape"/>
</filter>
<clipPath id="clip0_85_42">
<rect width="200" height="114" fill="white"/>
</clipPath>
</defs>
</svg>
