<svg width="100" height="100" viewBox="0 0 100 100" fill="none" xmlns="http://www.w3.org/2000/svg">
<path d="M44.6802 14.3026C46.0912 14.1313 47.4916 14.7051 48.4198 15.8351L57.2034 26.5273C67.2589 29.1032 73.1059 37.0326 76.3577 46.9446C79.7085 57.1581 80.5712 70.1354 80.6143 83.4459C80.6224 85.934 78.7091 87.9573 76.3408 87.965L36.3592 88.0945C34.0826 88.1019 32.1968 86.2391 32.0637 83.8513C31.9449 81.7206 32.3997 78.0212 33.8096 74.2396L33.8355 74.1704C29.8043 76.461 25.3204 75.93 21.9851 73.452C17.9317 70.4404 15.6642 64.5267 18.214 58.671C20.0527 54.4485 22.0419 52.2092 23.5467 50.5156C24.9523 48.9336 25.538 48.2379 25.9482 46.4887C28.4355 35.8833 33.6036 29.7618 39.1659 26.9577C39.0814 25.7507 39.1432 24.5874 39.2807 23.5309C39.623 20.9012 40.4885 18.4693 41.3731 16.6907C42.0308 15.3682 43.2692 14.4739 44.6802 14.3026Z" fill="#F4F7FA"/>
<path fill-rule="evenodd" clip-rule="evenodd" d="M54.8966 30.6139L45.1735 18.778C43.7807 21.5786 42.4376 26.518 44.4031 30.0742C43.455 30.166 42.5492 30.3375 41.8491 30.6353C37.3826 32.5356 32.4907 37.4235 30.1115 47.5679C29.4226 50.5053 28.1701 51.915 26.6814 53.5904C25.2772 55.1708 23.6628 56.9876 22.1132 60.5463C18.9209 67.8776 27.6241 75.1704 33.9315 68.5006C37.4776 64.7508 40.5829 63.1974 43.1899 61.8933C46.9423 60.0163 49.6626 58.6554 51.1802 52.0048C51.9225 55.1023 51.6533 62.419 44.638 66.9056C37.6228 71.3922 36.1887 80.7999 36.3442 83.5894L76.3259 83.4598C76.24 56.9731 72.828 34.0994 54.8966 30.6139Z" fill="#34364C"/>
<ellipse cx="42.9651" cy="44.1473" rx="3.21612" ry="3.37889" transform="rotate(-0.185715 42.9651 44.1473)" fill="#F4F7FA"/>
</svg>
