<svg width="100" height="100" viewBox="0 0 100 100" fill="none" xmlns="http://www.w3.org/2000/svg">
<path d="M41.0357 32.4259C40.6008 31.1837 40.3608 29.842 40.3563 28.4436C40.3354 22.0079 45.2843 16.7747 51.41 16.7548C57.5356 16.735 62.5183 21.936 62.5392 28.3717C62.5453 30.2568 62.1223 32.0452 61.3672 33.6278C62.4613 33.7038 63.526 34.2181 64.3039 35.1461C68.5309 40.188 72.2389 47.3845 72.266 55.7396C72.2854 61.713 70.3423 66.1456 67.7077 69.3435L72.7342 70.2528C74.7867 70.6241 76.2889 72.4909 76.296 74.6788L76.3234 83.126C76.3273 84.3208 75.8792 85.4682 75.0778 86.3157C74.2763 87.1632 73.1871 87.6414 72.0499 87.645L31.2301 87.7773C28.8618 87.785 26.9354 85.7742 26.9273 83.2861L26.8999 74.8389C26.8928 72.6535 28.3796 70.7785 30.4267 70.3911L34.9555 69.5342C32.2641 66.3476 30.2597 61.9029 30.2401 55.8759C30.219 49.3572 32.6051 43.6724 35.4111 39.3125C37.1749 36.5722 39.1742 34.244 41.0357 32.4259Z" fill="#F4F7FA"/>
<path d="M53.6374 55.2044L49.3493 55.2183C49.3225 46.9459 51.6839 38.6796 56.9477 32.6174C57.7718 31.4307 58.2561 29.9674 58.251 28.3856C58.2382 24.438 55.1819 21.2478 51.4246 21.26C47.6672 21.2722 44.6316 24.4822 44.6444 28.4297C44.6507 30.3773 45.3979 32.1405 46.6046 33.4258C42.3651 36.6226 34.4937 45.18 34.5283 55.862C34.5632 66.642 42.6221 70.9801 46.8452 71.8624L31.1881 74.825L31.2154 83.2722L72.0352 83.1399L72.0079 74.6927L55.9602 71.7895C60.225 70.7887 68.0123 66.3694 67.9778 55.7535C67.9553 48.8025 64.8531 42.6162 61.0864 38.1232C56.9766 41.5155 53.6187 49.4105 53.6374 55.2044Z" fill="#34364C"/>
</svg>
