<svg width="100" height="100" viewBox="0 0 100 100" fill="none" xmlns="http://www.w3.org/2000/svg">
<path d="M32.0133 25.368C32.0169 26.48 32.1907 27.5494 32.5086 28.5491L30.3953 29.5991C28.6343 27.6938 26.1677 26.5132 23.4407 26.5221C18.1121 26.5393 13.8071 31.0916 13.8252 36.6899C13.8414 41.6803 17.2873 45.8173 21.8098 46.6447L26.9529 64.9401C27.0602 65.322 27.2153 65.6873 27.414 66.0264L30.3603 71.0541L30.3424 71.0575C28.2953 71.4449 26.8085 73.3199 26.8156 75.5053L26.843 83.9525C26.851 86.4406 28.7774 88.4514 31.1457 88.4437L71.9655 88.3114C73.1028 88.3077 74.192 87.8295 74.9934 86.9821C75.7949 86.1346 76.2429 84.9872 76.2391 83.7924L76.2117 75.3452C76.2046 73.1573 74.7023 71.2905 72.6499 70.9192L72.5636 70.9036L75.4694 65.8707C75.6659 65.5303 75.8186 65.164 75.9235 64.7814L80.9478 46.453C85.4649 45.5963 88.8839 41.4371 88.8677 36.4467C88.8496 30.8484 84.5151 26.3241 79.1865 26.3414C76.4561 26.3502 73.9944 27.5498 72.2454 29.4707L70.1292 28.4362C70.4424 27.4319 70.6102 26.3583 70.6066 25.2429C70.5884 19.6446 66.254 15.1202 60.9254 15.1375C55.5968 15.1548 51.2918 19.7071 51.31 25.3054C51.2918 19.7071 46.9574 15.1828 41.6288 15.2001C36.3002 15.2173 31.9952 19.7697 32.0133 25.368Z" fill="#F4F7FA"/>
<path d="M43.6028 30.5883C45.6099 29.7694 47.0296 27.7171 47.0218 25.3194C47.0117 22.2092 44.6037 19.6957 41.6434 19.7053C38.683 19.7149 36.2914 22.244 36.3014 25.3541C36.3108 28.2282 38.3678 30.5928 41.0162 30.9276L38.6917 51.2513L27.1342 40.7737C28.1845 39.7419 28.839 38.2715 28.8337 36.6414C28.8236 33.5312 26.4156 31.0177 23.4553 31.0273C20.4949 31.0369 18.1033 33.5659 18.1134 36.6761C18.1234 39.7863 20.5314 42.2998 23.4918 42.2902C24.0129 42.2885 24.5164 42.2087 24.9923 42.0615L31.0654 63.6654L37.3077 74.3175L31.1037 75.4914L31.1311 83.9386L71.9509 83.8063L71.9235 75.3591L65.6323 74.221L71.8027 63.5334L77.7357 41.8905C78.2125 42.0347 78.7165 42.1112 79.2376 42.1095C82.198 42.0999 84.5896 39.5708 84.5795 36.4607C84.5695 33.3505 82.1615 30.837 79.2011 30.8466C76.2408 30.8562 73.8491 33.3853 73.8592 36.4954C73.8645 38.1255 74.5285 39.5917 75.5855 40.6167L64.0962 51.169L61.6399 30.8608C64.286 30.5088 66.3277 28.131 66.3184 25.2568C66.3084 22.1467 63.9003 19.6331 60.94 19.6427C57.9797 19.6523 55.588 22.1814 55.5981 25.2916C55.6059 27.6893 57.0388 29.7324 59.0512 30.5382L51.3866 48.9576L43.6028 30.5883Z" fill="#34364C"/>
</svg>
