<svg width="100" height="100" viewBox="0 0 100 100" fill="none" xmlns="http://www.w3.org/2000/svg">
<path d="M38.2068 60.533C37.6975 61.2684 37.0896 62.0345 36.3805 62.8229C33.8782 65.6051 30.8057 67.8974 28.8218 69.0972L28.4881 69.2991C27.1546 70.1055 26.3349 71.6009 26.3401 73.2176L26.3753 84.0807C26.3834 86.5688 28.3098 88.5796 30.6781 88.5719L72.4875 88.4364C74.8557 88.4287 76.7691 86.4055 76.761 83.9173L76.7258 73.0543C76.7205 71.4376 75.8912 69.9475 74.5525 69.1498L74.2175 68.9501C72.2258 67.7632 69.1385 65.4908 66.6182 62.7248C65.9041 61.9411 65.2912 61.1789 64.7772 60.4469C66.6576 59.9645 68.0501 58.1796 68.0433 56.0562L68.0195 48.7226C68.0147 47.2588 67.3334 45.8884 66.1923 45.048L64.3667 43.7032C65.4106 41.5546 65.9974 39.1184 65.9891 36.5403C65.961 27.891 59.2645 20.9011 51.0319 20.9278C42.7993 20.9545 36.1482 27.9877 36.1763 36.6369C36.1851 39.36 36.8567 41.9198 38.0272 44.1465L36.6918 45.1436C35.5563 45.9914 34.8838 47.3662 34.8885 48.83L34.9123 56.1636C34.9192 58.287 36.3232 60.0628 38.2068 60.533Z" fill="#F4F7FA"/>
<path d="M61.7009 36.5542C61.7114 39.7896 60.4098 42.7076 58.3221 44.7521L63.7313 48.7366L63.7551 56.0701L58.4723 56.0872C58.7381 59.4857 60.8251 62.881 63.5211 65.8397C66.3821 68.9797 69.8203 71.5084 72.1026 72.8686L72.4376 73.0682L72.4728 83.9313L30.6635 84.0668L30.6283 73.2037L30.962 73.0019C33.2354 71.627 36.6571 69.076 39.4978 65.9176C42.1745 62.9414 44.2395 59.5327 44.4832 56.1326L39.2004 56.1497L39.1766 48.8161L44.1903 45.0727C41.9192 43.0342 40.4754 40.0069 40.4644 36.623C40.4444 30.4619 45.1822 25.452 51.0465 25.4329C56.9108 25.4139 61.6809 30.3931 61.7009 36.5542Z" fill="#34364C"/>
</svg>
