<svg width="100" height="100" viewBox="0 0 100 100" fill="none" xmlns="http://www.w3.org/2000/svg">
<path d="M40.8254 19.7095C41.6064 19.7069 42.3394 19.924 42.9714 20.3052C43.6009 19.9199 44.3325 19.6981 45.1135 19.6956L56.9059 19.6573C57.687 19.6548 58.42 19.8718 59.0519 20.2531C59.6814 19.8677 60.413 19.646 61.1941 19.6434L71.9144 19.6087C74.2827 19.601 76.2091 21.6118 76.2171 24.1L76.25 34.2366C76.2546 35.6546 75.6235 36.992 74.5464 37.8463L67.9466 43.0815L69.8776 60.791C70.3888 65.4796 72.4744 67.8524 75.515 72.0828C76.0743 72.8608 76.3783 73.8083 76.3814 74.7831L76.4106 83.7934C76.4187 86.2815 74.5054 88.3048 72.1371 88.3125L30.3277 88.448C27.9595 88.4557 26.0331 86.4448 26.025 83.9567L25.9958 74.9464C25.9926 73.9716 26.2905 73.0221 26.8446 72.2405C29.8578 67.9906 31.928 65.6042 32.4088 60.9124L34.225 43.1908L27.5913 37.9985C26.5088 37.1512 25.869 35.8179 25.8644 34.3999L25.8315 24.2633C25.8234 21.7751 27.7368 19.7519 30.105 19.7442L40.8254 19.7095Z" fill="#F4F7FA"/>
<path d="M30.1196 24.2493L40.84 24.2146L40.8619 30.9723L45.15 30.9584L45.1281 24.2007L56.9205 24.1625L56.9424 30.9202L61.2306 30.9063L61.2087 24.1486L71.929 24.1138L71.9619 34.2504L63.4075 41.036L65.6173 61.3023L36.6723 61.3961L38.7507 41.1159L30.1525 34.3859L30.1196 24.2493Z" fill="#34364C"/>
<path d="M36.6869 65.9013L65.6319 65.8074L72.0933 74.7969L72.1225 83.8072L30.3131 83.9428L30.2839 74.9324L36.6869 65.9013Z" fill="#34364C"/>
</svg>
