<svg width="100" height="100" viewBox="0 0 100 100" fill="none" xmlns="http://www.w3.org/2000/svg">
<g clip-path="url(#clip0_236_917)">
<path fill-rule="evenodd" clip-rule="evenodd" d="M44.7728 18.0942C44.8372 15.6618 46.7285 13.7234 49.0447 13.7159L55.4769 13.695C57.793 13.6875 59.6969 15.6136 59.7771 18.0456L59.8189 19.3125L61.9274 19.3056C64.2956 19.2979 66.222 21.3088 66.2301 23.7969L66.239 26.5293C70.9096 25.4029 75.9572 26.1288 80.2515 29.864C89.1727 37.6236 88.4071 53.9528 77.8784 62.9172C75.3376 65.0805 73.3418 66.8736 71.9695 68.7189C71.6564 69.1399 71.3883 69.5471 71.1628 69.9456L75.5107 70.549C77.6385 70.8443 79.2313 72.7467 79.2386 75.0015L79.266 83.4487C79.2741 85.9368 77.3607 87.9601 74.9925 87.9678L30.011 88.1136C27.6427 88.1212 25.7163 86.1104 25.7083 83.6223L25.6809 75.1751C25.6736 72.9203 27.254 71.0077 29.3798 70.6986L33.7237 70.0669C33.4957 69.6699 33.225 69.2645 32.9091 68.8455C31.5249 67.0091 29.5175 65.229 26.9627 63.0822C16.3762 54.1863 15.5047 37.8624 24.3754 30.0451C28.6454 26.2822 33.6882 25.5235 38.366 26.6197L38.3572 23.8872C38.3491 21.3991 40.2624 19.3758 42.6307 19.3682L44.7392 19.3613L44.7728 18.0942Z" fill="#F4F7FA"/>
<path fill-rule="evenodd" clip-rule="evenodd" d="M49.0594 18.221L55.4916 18.2002L55.6774 23.8311L61.9421 23.8108L61.964 30.5685L55.9003 30.5882L56.2197 38.2381C56.3367 38.0922 56.4573 37.9492 56.5816 37.8095C62.4171 31.2508 71.0894 27.7426 77.5177 33.3338C83.9681 38.9445 84.0101 51.8968 75.178 59.4166C70.1749 63.6764 65.6946 67.7817 65.9354 73.7642L74.9506 75.0154L74.978 83.4626L29.9966 83.6084L29.9692 75.1612L38.9761 73.8516C39.1782 67.8677 34.6713 63.7914 29.6407 59.5642C20.76 52.1018 20.718 39.1495 27.132 33.4972C33.5239 27.8643 42.2187 31.3163 48.0966 37.837C48.2218 37.9759 48.3433 38.1181 48.4613 38.2632L48.7311 30.6114L42.6674 30.6311L42.6455 23.8733L48.9102 23.853L49.0594 18.221ZM43.0842 44.1151C47.0369 50.8668 47.5828 58.7727 47.594 62.2115C45.6237 62.2216 38.1852 58.8127 34.2345 53.1897C31.3903 49.1415 30.6326 43.1241 33.0519 40.7792C35.4711 38.4344 40.6137 39.8953 43.0842 44.1151ZM61.6346 44.055C57.7258 50.8322 57.2311 58.7414 57.2423 62.1802C59.2125 62.1776 66.6288 58.7205 70.543 53.072C73.3609 49.0054 74.0796 42.9833 71.6451 40.6541C69.2107 38.325 64.0777 39.8192 61.6346 44.055Z" fill="#34364C"/>
</g>
<defs>
<clipPath id="clip0_236_917">
<rect width="77.187" height="81.0934" fill="white" transform="translate(12.5957 13.834) rotate(-0.185715)"/>
</clipPath>
</defs>
</svg>
