<svg width="100" height="100" viewBox="0 0 100 100" fill="none" xmlns="http://www.w3.org/2000/svg">
<path d="M41.2785 19.5771C42.0596 19.5746 42.7926 19.7916 43.4245 20.1729C44.054 19.7875 44.7856 19.5658 45.5667 19.5632L57.359 19.525C58.1401 19.5225 58.8731 19.7395 59.5051 20.1208C60.1346 19.7354 60.8661 19.5137 61.6472 19.5111L72.3675 19.4764C74.7358 19.4687 76.6622 21.4795 76.6703 23.9676L76.7031 34.1043C76.7077 35.5223 76.0766 36.8596 74.9996 37.714L68.3997 42.9491L70.3307 60.6587C70.8419 65.3473 72.9275 67.7201 75.9682 71.9504C76.5274 72.7284 76.8314 73.676 76.8346 74.6507L76.8638 83.6611C76.8718 86.1492 74.9585 88.1725 72.5902 88.1801L30.7809 88.3157C28.4126 88.3233 26.4862 86.3125 26.4781 83.8244L26.4489 74.8141C26.4457 73.8393 26.7436 72.8898 27.2978 72.1082C30.3109 67.8582 32.3811 65.4719 32.8619 60.7801L34.6781 43.0584L28.0444 37.8662C26.9619 37.0188 26.3221 35.6856 26.3175 34.2676L26.2846 24.131C26.2766 21.6428 28.1899 19.6196 30.5582 19.6119L41.2785 19.5771Z" fill="#34364C"/>
<path d="M30.5728 24.117L41.2931 24.0823L41.315 30.84L45.6032 30.8261L45.5812 24.0684L57.3736 24.0301L57.3955 30.7879L61.6837 30.774L61.6618 24.0162L72.3821 23.9815L72.415 34.1181L63.8606 40.9037L66.0704 61.1699L37.1254 61.2638L39.2038 40.9836L30.6056 34.2536L30.5728 24.117Z" fill="#F4F7FA"/>
<path d="M37.14 65.7689L66.085 65.6751L72.5464 74.6646L72.5756 83.6749L30.7662 83.8104L30.737 74.8001L37.14 65.7689Z" fill="#F4F7FA"/>
</svg>
