<svg width="100" height="100" viewBox="0 0 100 100" fill="none" xmlns="http://www.w3.org/2000/svg">
<path d="M32.4667 25.2356C32.4703 26.3477 32.644 27.4171 32.9619 28.4168L30.8486 29.4668C29.0877 27.5615 26.6211 26.3809 23.8941 26.3897C18.5654 26.407 14.2604 30.9593 14.2786 36.5576C14.2948 41.548 17.7407 45.6849 22.2632 46.5124L27.4062 64.8078C27.5136 65.1897 27.6687 65.555 27.8674 65.8941L30.8137 70.9218L30.7957 70.9252C28.7487 71.3125 27.2619 73.1876 27.269 75.373L27.2963 83.8201C27.3044 86.3083 29.2308 88.3191 31.5991 88.3114L72.4189 88.1791C73.5562 88.1754 74.6453 87.6972 75.4468 86.8497C76.2482 86.0023 76.6963 84.8549 76.6924 83.66L76.6651 75.2128C76.658 73.025 75.1557 71.1582 73.1033 70.7869L73.017 70.7713L75.9227 65.7383C76.1192 65.3979 76.2719 65.0317 76.3768 64.6491L81.4012 46.3207C85.9182 45.4639 89.3372 41.3047 89.3211 36.3144C89.3029 30.7161 84.9685 26.1918 79.6399 26.209C76.9095 26.2179 74.4478 27.4175 72.6988 29.3384L70.5825 28.3039C70.8958 27.2995 71.0636 26.2259 71.06 25.1105C71.0418 19.5122 66.7074 14.9879 61.3788 15.0052C56.0502 15.0225 51.7452 19.5748 51.7633 25.1731C51.7452 19.5748 47.4108 15.0505 42.0821 15.0677C36.7535 15.085 32.4485 19.6373 32.4667 25.2356Z" fill="#34364C"/>
<path d="M44.0561 30.4559C46.0633 29.6371 47.4829 27.5847 47.4752 25.187C47.4651 22.0769 45.0571 19.5634 42.0967 19.573C39.1364 19.5826 36.7447 22.1116 36.7548 25.2218C36.7641 28.0959 38.8212 30.4605 41.4696 30.7953L39.145 51.119L27.5876 40.6414C28.6379 39.6096 29.2924 38.1391 29.2871 36.509C29.277 33.3989 26.869 30.8854 23.9086 30.895C20.9483 30.9046 18.5566 33.4336 18.5667 36.5438C18.5768 39.654 20.9848 42.1675 23.9452 42.1579C24.4663 42.1562 24.9698 42.0764 25.4457 41.9292L31.5188 63.5331L37.7611 74.1852L31.5571 75.3591L31.5845 83.8063L72.4043 83.674L72.3769 75.2268L66.0857 74.0887L72.2561 63.401L78.189 41.7582C78.6658 41.9024 79.1699 41.9789 79.691 41.9772C82.6513 41.9676 85.043 39.4385 85.0329 36.3284C85.0228 33.2182 82.6148 30.7047 79.6545 30.7143C76.6941 30.7239 74.3025 33.2529 74.3126 36.3631C74.3178 37.9932 74.9818 39.4594 76.0388 40.4843L64.5495 51.0367L62.0933 30.7285C64.7394 30.3765 66.7811 27.9986 66.7718 25.1245C66.7617 22.0143 64.3537 19.5008 61.3934 19.5104C58.433 19.52 56.0414 22.0491 56.0514 25.1592C56.0592 27.5569 57.4921 29.6 59.5046 30.4059L51.84 48.8253L44.0561 30.4559Z" fill="#F4F7FA"/>
</svg>
