<svg width="100" height="100" viewBox="0 0 100 100" fill="none" xmlns="http://www.w3.org/2000/svg">
<path d="M41.4896 32.2935C41.0546 31.0513 40.8147 29.7097 40.8101 28.3112C40.7893 21.8755 45.7382 16.6423 51.8638 16.6225C57.9895 16.6026 62.9722 21.8036 62.993 28.2393C62.9991 30.1244 62.5761 31.9128 61.8211 33.4954C62.9152 33.5714 63.9798 34.0857 64.7578 35.0137C68.9847 40.0557 72.6928 47.2521 72.7199 55.6072C72.7392 61.5806 70.7962 66.0132 68.1615 69.2111L73.1881 70.1205C75.2405 70.4918 76.7428 72.3585 76.7499 74.5464L76.7773 82.9936C76.7811 84.1884 76.3331 85.3358 75.5316 86.1833C74.7302 87.0308 73.641 87.509 72.5037 87.5127L31.6839 87.645C29.3156 87.6526 27.3892 85.6418 27.3812 83.1537L27.3538 74.7065C27.3467 72.5211 28.8335 70.6461 30.8805 70.2588L35.4094 69.4018C32.718 66.2152 30.7135 61.7706 30.694 55.7435C30.6729 49.2248 33.059 43.54 35.865 39.1802C37.6287 36.4398 39.628 34.1116 41.4896 32.2935Z" fill="#34364C"/>
<path d="M54.0913 55.072L49.8032 55.0859C49.7763 46.8135 52.1378 38.5472 57.4016 32.485C58.2257 31.2984 58.71 29.835 58.7049 28.2532C58.6921 24.3057 55.6358 21.1155 51.8784 21.1276C48.121 21.1398 45.0855 24.3498 45.0983 28.2973C45.1046 30.2449 45.8518 32.0082 47.0584 33.2934C42.819 36.4902 34.9475 45.0476 34.9821 55.7296C35.0171 66.5096 43.0759 70.8478 47.2991 71.73L31.6419 74.6926L31.6693 83.1398L72.4891 83.0075L72.4617 74.5603L56.4141 71.6571C60.6788 70.6563 68.4661 66.237 68.4317 55.6212C68.4092 48.6701 65.307 42.4839 61.5403 37.9909C57.4304 41.3831 54.0725 49.2781 54.0913 55.072Z" fill="#F4F7FA"/>
</svg>
