<svg width="100" height="100" viewBox="0 0 100 100" fill="none" xmlns="http://www.w3.org/2000/svg">
<path d="M37.9589 60.1527C37.4497 60.8881 36.8418 61.6542 36.1327 62.4426C33.6304 65.2248 30.5579 67.5172 28.574 68.717L28.2403 68.9188C26.9068 69.7253 26.0871 71.2207 26.0923 72.8374L26.1275 83.7004C26.1356 86.1886 28.062 88.1994 30.4303 88.1917L72.2397 88.0562C74.6079 88.0485 76.5213 86.0252 76.5132 83.5371L76.478 72.6741C76.4727 71.0574 75.6434 69.5673 74.3047 68.7695L73.9697 68.5698C71.978 67.3829 68.8907 65.1105 66.3704 62.3446C65.6563 61.5608 65.0434 60.7987 64.5294 60.0666C66.4098 59.5842 67.8023 57.7994 67.7955 55.676L67.7717 48.3424C67.7669 46.8786 67.0856 45.5082 65.9445 44.6677L64.1189 43.323C65.1628 41.1744 65.7496 38.7381 65.7413 36.16C65.7132 27.5108 59.0167 20.5208 50.7841 20.5475C42.5515 20.5742 35.9004 27.6074 35.9285 36.2567C35.9373 38.9798 36.6089 41.5396 37.7794 43.7663L36.444 44.7633C35.3085 45.6112 34.636 46.986 34.6407 48.4498L34.6645 55.7833C34.6714 57.9068 36.0754 59.6826 37.9589 60.1527Z" fill="#34364C"/>
<path d="M61.4531 36.1739C61.4636 39.4094 60.162 42.3274 58.0743 44.3718L63.4835 48.3563L63.5073 55.6899L58.2245 55.707C58.4903 59.1055 60.5773 62.5007 63.2733 65.4595C66.1343 68.5994 69.5725 71.1282 71.8548 72.4883L72.1898 72.688L72.225 83.551L30.4157 83.6865L30.3805 72.8235L30.7142 72.6217C32.9876 71.2468 36.4093 68.6958 39.25 65.5373C41.9267 62.5612 43.9917 59.1525 44.2354 55.7523L38.9526 55.7694L38.9288 48.4359L43.9425 44.6925C41.6714 42.6539 40.2276 39.6266 40.2166 36.2428C40.1966 30.0817 44.9344 25.0717 50.7987 25.0527C56.663 25.0337 61.4331 30.0128 61.4531 36.1739Z" fill="#F4F7FA"/>
</svg>
