<svg width="100" height="100" viewBox="0 0 100 100" fill="none" xmlns="http://www.w3.org/2000/svg">
<path d="M45.1331 14.1702C46.5441 13.9989 47.9445 14.5728 48.8727 15.7027L57.6562 26.3949C67.7117 28.9708 73.5588 36.9002 76.8106 46.8122C80.1613 57.0257 81.0241 70.003 81.0672 83.3135C81.0753 85.8016 79.162 87.8249 76.7937 87.8326L36.812 87.9622C34.5355 87.9695 32.6497 86.1067 32.5166 83.719C32.3978 81.5882 32.8525 77.8889 34.2625 74.1073L34.2884 74.038C30.2572 76.3286 25.7733 75.7976 22.438 73.3196C18.3846 70.308 16.1171 64.3943 18.6669 58.5386C20.5056 54.3161 22.4948 52.0768 23.9996 50.3832C25.4052 48.8012 25.9908 48.1055 26.4011 46.3564C28.8884 35.7509 34.0565 29.6294 39.6187 26.8253C39.5343 25.6183 39.596 24.455 39.7336 23.3985C40.0759 20.7688 40.9414 18.3369 41.826 16.5583C42.4837 15.2358 43.7221 14.3415 45.1331 14.1702Z" fill="#34364C"/>
<path fill-rule="evenodd" clip-rule="evenodd" d="M55.35 30.4815L45.6269 18.6456C44.2341 21.4463 42.891 26.3856 44.8565 29.9418C43.9084 30.0336 43.0026 30.2051 42.3025 30.5029C37.8359 32.4032 32.9441 37.2911 30.5649 47.4355C29.876 50.373 28.6234 51.7826 27.1348 53.458C25.7305 55.0384 24.1162 56.8553 22.5666 60.4139C19.3742 67.7452 28.0775 75.038 34.3849 68.3682C37.931 64.6184 41.0362 63.0651 43.6433 61.7609C47.3956 59.8839 50.116 58.5231 51.6336 51.8724C52.3759 54.9699 52.1067 62.2866 45.0914 66.7732C38.0761 71.2599 36.6421 80.6676 36.7976 83.457L76.7792 83.3274C76.6934 56.8407 73.2814 33.967 55.35 30.4815Z" fill="#F4F7FA"/>
<ellipse cx="43.4182" cy="44.0149" rx="3.21612" ry="3.37889" transform="rotate(-0.185715 43.4182 44.0149)" fill="#34364C"/>
</svg>
