<svg width="100" height="100" viewBox="0 0 100 100" fill="none" xmlns="http://www.w3.org/2000/svg">
<g clip-path="url(#clip0_236_919)">
<path fill-rule="evenodd" clip-rule="evenodd" d="M45.2261 17.9619C45.2906 15.5295 47.1819 13.5911 49.498 13.5835L55.9303 13.5627C58.2464 13.5552 60.1502 15.4813 60.2305 17.9132L60.2722 19.1801L62.3807 19.1733C64.749 19.1656 66.6754 21.1764 66.6835 23.6646L66.6923 26.397C71.363 25.2706 76.4106 25.9965 80.7049 29.7317C89.626 37.4913 88.8604 53.8205 78.3318 62.7848C75.7909 64.9481 73.7952 66.7412 72.4228 68.5866C72.1097 69.0076 71.8417 69.4148 71.6162 69.8133L75.9641 70.4167C78.0919 70.712 79.6847 72.6144 79.692 74.8692L79.7194 83.3164C79.7274 85.8045 77.8141 87.8278 75.4458 87.8354L30.4644 87.9812C28.0961 87.9889 26.1697 85.9781 26.1616 83.49L26.1343 75.0428C26.1269 72.788 27.7074 70.8753 29.8332 70.5662L34.1771 69.9346C33.949 69.5376 33.6783 69.1321 33.3625 68.7131C31.9783 66.8768 29.9709 65.0966 27.4161 62.9499C16.8296 54.054 15.9581 37.7301 24.8288 29.9128C29.0988 26.1499 34.1416 25.3912 38.8194 26.4874L38.8105 23.7549C38.8025 21.2668 40.7158 19.2435 43.0841 19.2358L45.1926 19.229L45.2261 17.9619Z" fill="#34364C"/>
<path fill-rule="evenodd" clip-rule="evenodd" d="M49.5126 18.0887L55.9448 18.0678L56.1305 23.6987L62.3952 23.6784L62.4171 30.4362L56.3534 30.4558L56.6728 38.1057C56.7899 37.9599 56.9105 37.8169 57.0348 37.6772C62.8703 31.1185 71.5425 27.6102 77.9708 33.2015C84.4212 38.8121 84.4632 51.7645 75.6311 59.2843C70.628 63.5441 66.1477 67.6494 66.3885 73.6318L75.4038 74.8831L75.4311 83.3302L30.4497 83.476L30.4223 75.0289L39.4293 73.7192C39.6313 67.7354 35.1244 63.6591 30.0938 59.4319C21.2132 51.9695 21.1712 39.0171 27.5851 33.3648C33.977 27.732 42.6718 31.1839 48.5497 37.7047C48.6749 37.8436 48.7964 37.9858 48.9144 38.1309L49.1842 30.4791L43.1205 30.4987L43.0986 23.741L49.3633 23.7207L49.5126 18.0887ZM43.5373 43.9828C47.49 50.7345 48.0359 58.6404 48.0471 62.0792C46.0769 62.0893 38.6383 58.6804 34.6876 53.0573C31.8434 49.0092 31.0857 42.9918 33.505 40.6469C35.9243 38.302 41.0669 39.7629 43.5373 43.9828ZM62.0878 43.9226C58.1789 50.6999 57.6843 58.6091 57.6954 62.0479C59.6657 62.0452 67.0819 58.5882 70.9961 52.9397C73.814 48.8731 74.5327 42.851 72.0983 40.5218C69.6638 38.1927 64.5308 39.6869 62.0878 43.9226Z" fill="#F4F7FA"/>
</g>
<defs>
<clipPath id="clip0_236_919">
<rect width="77.187" height="81.0934" fill="white" transform="translate(13.0488 13.7017) rotate(-0.185715)"/>
</clipPath>
</defs>
</svg>
